SplineFontDB: 3.0
FontName: Oswald-Light
FullName: Oswald Light
FamilyName: Oswald
Weight: Light
Copyright: Copyright (c) 2011 by vernon adams. All rights reserved.
Version: 
ItalicAngle: 0
UnderlinePosition: -125
UnderlineWidth: 50
Ascent: 1638
Descent: 410
UFOAscent: 2244
UFODescent: -646
LayerCount: 2
Layer: 0 0 "Back"  1
Layer: 1 0 "Fore"  0
FSType: 0
OS2Version: 0
OS2_WeightWidthSlopeOnly: 0
OS2_UseTypoMetrics: 0
CreationTime: 1345466565
ModificationTime: 1345467074
PfmFamily: 17
TTFWeight: 300
TTFWidth: 5
LineGap: 0
VLineGap: 0
Panose: 2 0 3 3 0 0 0 0 0 0
OS2TypoAscent: 2444
OS2TypoAOffset: 0
OS2TypoDescent: -704
OS2TypoDOffset: 0
OS2TypoLinegap: 0
OS2WinAscent: 2444
OS2WinAOffset: 0
OS2WinDescent: 704
OS2WinDOffset: 0
HheadAscent: 2444
HheadAOffset: 0
HheadDescent: -704
HheadDOffset: 0
OS2SubXSize: 25229
OS2SubYSize: 23417
OS2SubXOff: 0
OS2SubYOff: 5050
OS2SupXSize: 25229
OS2SupYSize: 23417
OS2SupXOff: 0
OS2SupYOff: 17189
OS2StrikeYSize: 209
OS2StrikeYPos: 1049
OS2Vendor: 'newt'
OS2CodePages: 00000093.00000000
OS2UnicodeRanges: 0000006f.0000004f.00000002.00000000
Lookup: 258 0 0 "'kern' Horizontal Kerning in Latin lookup 0"  {"'kern' Horizontal Kerning in Latin lookup 0 subtable" [307,30,0] "'kern' Horizontal Kerning lookup 1 kerning class 1"  } ['kern' ('DFLT' <'dflt' > 'latn' <'dflt' > ) ]
MarkAttachClasses: 1
DEI: 91125
KernClass2: 28 21 "'kern' Horizontal Kerning lookup 1 kerning class 1" 
 81 A Aacute Abreve Acircumflex Adieresis Agrave Amacron Aogonek Aring Atilde uni0202
 1 B
 75 D Eth O Oacute Ocircumflex Odieresis Ograve Oslash Otilde Q uni020C uni020E
 1 F
 1 K
 1 L
 1 P
 44 R Racute Rcaron Rcommaaccent uni0210 uni0212
 22 T Tcommaaccent uni021A
 1 V
 1 W
 18 Y Yacute Ydieresis
 1 a
 69 b o oacute ocircumflex odieresis ograve oslash otilde p thorn uni020F
 1 c
 1 d
 1 e
 1 f
 1 g
 24 h hbar m n nacute ntilde
 27 k kcommaaccent kgreenlandic
 29 r rcaron rcommaaccent uni0213
 22 t tcommaaccent uni021B
 1 v
 1 w
 1 x
 18 y yacute ydieresis

StartChar: A
Encoding: 256 65 0
Width: 972
VWidth: 0
Flags: W
PickledData: "(dp1
S'com.typemytype.robofont.layerData'
p2
(dp3
s."
LayerCount: 2
Fore
SplineSet
306 549 m 1
 485 1563 l 1
 666 549 l 1
 306 549 l 1
200 0 m 1
 288 448 l 1
 685 448 l 1
 771 0 l 1
 925 0 l 1
 585 1721 l 1
 387 1721 l 1
 47 0 l 1
 200 0 l 1
EndSplineSet
EndChar

StartChar: AE
Encoding: 257 198 1
Width: 1380
VWidth: 0
Flags: W
PickledData: "(dp1
S'com.typemytype.robofont.layerData'
p2
(dp3
s."
LayerCount: 2
Fore
SplineSet
365 549 m 1
 719 1563 l 1
 719 549 l 1
 365 549 l 1
12 0 m 1
 164 0 l 1
 329 448 l 1
 720 448 l 1
 720 0 l 1
 1320 0 l 1
 1320 122 l 1
 872 122 l 1
 872 832 l 1
 1192 832 l 1
 1192 947 l 1
 872 947 l 1
 872 1599 l 1
 1320 1599 l 1
 1320 1721 l 1
 648 1721 l 1
 12 0 l 1
EndSplineSet
EndChar

StartChar: B
Encoding: 267 66 11
Width: 1012
VWidth: 0
Flags: W
PickledData: "(dp1
S'com.typemytype.robofont.layerData'
p2
(dp3
s."
LayerCount: 2
Fore
SplineSet
298 982 m 1
 298 1605 l 1
 496 1605 l 2
 687 1605 742 1458 742 1281 c 0
 742 1127 696 982 542 982 c 2
 298 982 l 1
298 116 m 1
 298 865 l 1
 570 865 l 2
 752 865 788 700 788 513 c 0
 788 301 749 116 570 116 c 2
 298 116 l 1
146 0 m 1
 546 0 l 2
 882 0 940 240 940 513 c 0
 940 659 890 864 719 933 c 1
 842 989 905 1153 905 1284 c 0
 905 1500 823 1721 516 1721 c 2
 146 1721 l 1
 146 0 l 1
EndSplineSet
EndChar

StartChar: C
Encoding: 268 67 12
Width: 1032
VWidth: 0
Flags: W
PickledData: "(dp1
S'com.typemytype.robofont.layerData'
p2
(dp3
s."
LayerCount: 2
Fore
SplineSet
114 499 m 2
 114 210 200 -27 542 -27 c 0
 860 -27 946 210 946 499 c 2
 946 583 l 1
 801 583 l 1
 801 465 l 2
 801 255 742 95 542 95 c 0
 318 95 266 255 266 465 c 2
 266 1254 l 2
 266 1464 318 1623 542 1623 c 0
 742 1623 801 1464 801 1254 c 2
 801 1150 l 1
 946 1150 l 1
 946 1220 l 2
 946 1511 852 1745 542 1745 c 0
 208 1745 114 1511 114 1220 c 2
 114 499 l 2
EndSplineSet
EndChar

StartChar: D
Encoding: 274 68 18
Width: 1086
VWidth: 0
Flags: W
PickledData: "(dp1
S'com.typemytype.robofont.layerData'
p2
(dp3
s."
LayerCount: 2
Fore
SplineSet
146 0 m 1
 533 0 l 2
 875 0 972 230 972 508 c 2
 972 1208 l 2
 972 1493 867 1721 533 1721 c 2
 146 1721 l 1
 146 0 l 1
298 122 m 1
 298 1599 l 1
 533 1599 l 2
 757 1599 820 1440 820 1242 c 2
 820 474 l 2
 820 282 757 122 533 122 c 2
 298 122 l 1
EndSplineSet
EndChar

StartChar: Dcroat
Encoding: 276 272 20
Width: 1128
VWidth: 0
Flags: W
PickledData: "(dp1
S'com.typemytype.robofont.layerData'
p2
(dp3
s."
LayerCount: 2
Fore
SplineSet
335 122 m 1
 335 830 l 1
 535 830 l 1
 535 924 l 1
 335 924 l 1
 335 1599 l 1
 570 1599 l 2
 794 1599 857 1440 857 1242 c 2
 857 474 l 2
 857 282 794 122 570 122 c 2
 335 122 l 1
183 0 m 1
 570 0 l 2
 912 0 1009 230 1009 508 c 2
 1009 1208 l 2
 1009 1493 904 1721 570 1721 c 2
 183 1721 l 1
 183 924 l 1
 43 924 l 1
 43 830 l 1
 183 830 l 1
 183 0 l 1
EndSplineSet
EndChar

StartChar: E
Encoding: 277 69 21
Width: 795
VWidth: 0
Flags: W
PickledData: "(dp1
S'com.typemytype.robofont.layerData'
p2
(dp3
s."
LayerCount: 2
Fore
SplineSet
146 0 m 1
 746 0 l 1
 746 122 l 1
 298 122 l 1
 298 832 l 1
 618 832 l 1
 618 947 l 1
 298 947 l 1
 298 1599 l 1
 746 1599 l 1
 746 1721 l 1
 146 1721 l 1
 146 0 l 1
EndSplineSet
EndChar

StartChar: Eth
Encoding: 285 208 29
Width: 1128
VWidth: 0
Flags: W
PickledData: "(dp1
S'com.typemytype.robofont.layerData'
p2
(dp3
s."
LayerCount: 2
Fore
SplineSet
335 122 m 1
 335 830 l 1
 535 830 l 1
 535 924 l 1
 335 924 l 1
 335 1599 l 1
 570 1599 l 2
 794 1599 857 1440 857 1242 c 2
 857 474 l 2
 857 282 794 122 570 122 c 2
 335 122 l 1
183 0 m 1
 570 0 l 2
 912 0 1009 230 1009 508 c 2
 1009 1208 l 2
 1009 1493 904 1721 570 1721 c 2
 183 1721 l 1
 183 924 l 1
 43 924 l 1
 43 830 l 1
 183 830 l 1
 183 0 l 1
EndSplineSet
EndChar

StartChar: Euro
Encoding: 286 8364 30
Width: 1096
VWidth: 0
Flags: W
PickledData: "(dp1
S'com.typemytype.robofont.layerData'
p2
(dp3
s."
LayerCount: 2
Fore
SplineSet
163 499 m 2
 163 210 258 -27 600 -27 c 0
 918 -27 1004 210 1004 499 c 2
 1004 583 l 1
 859 583 l 1
 859 465 l 2
 859 255 800 95 600 95 c 0
 376 95 315 255 315 465 c 2
 315 695 l 1
 583 695 l 1
 583 784 l 1
 315 784 l 1
 315 916 l 1
 583 916 l 1
 583 1005 l 1
 315 1005 l 1
 315 1254 l 2
 315 1464 376 1623 600 1623 c 0
 800 1623 859 1464 859 1254 c 2
 859 1150 l 1
 1004 1150 l 1
 1004 1220 l 2
 1004 1511 910 1745 600 1745 c 0
 266 1745 163 1511 163 1220 c 2
 163 1005 l 1
 41 1005 l 1
 41 916 l 1
 163 916 l 1
 163 784 l 1
 41 784 l 1
 41 695 l 1
 163 695 l 1
 163 499 l 2
EndSplineSet
EndChar

StartChar: F
Encoding: 287 70 31
Width: 736
VWidth: 0
Flags: W
PickledData: "(dp1
S'com.typemytype.robofont.layerData'
p2
(dp3
s."
LayerCount: 2
Fore
SplineSet
146 0 m 1
 298 0 l 1
 298 832 l 1
 654 832 l 1
 654 947 l 1
 298 947 l 1
 298 1599 l 1
 751 1599 l 1
 751 1721 l 1
 146 1721 l 1
 146 0 l 1
EndSplineSet
EndChar

StartChar: G
Encoding: 288 71 32
Width: 1088
VWidth: 0
Flags: W
PickledData: "(dp1
S'com.typemytype.robofont.layerData'
p2
(dp3
s."
LayerCount: 2
Fore
SplineSet
114 481 m 2
 114 321 127 -27 551 -27 c 0
 689 -27 817 48 863 168 c 1
 908 0 l 1
 975 0 l 1
 975 821 l 1
 612 821 l 1
 612 706 l 1
 823 706 l 1
 823 415 l 2
 823 264 775 95 553 95 c 0
 314 95 266 255 266 415 c 2
 266 1275 l 2
 266 1453 333 1623 565 1623 c 0
 817 1623 812 1396 812 1172 c 2
 812 1159 l 1
 964 1159 l 1
 964 1171 l 1
 962 1477 912 1745 567 1745 c 0
 201 1745 114 1486 114 1211 c 2
 114 481 l 2
EndSplineSet
EndChar

StartChar: H
Encoding: 293 72 37
Width: 1126
VWidth: 0
Flags: W
PickledData: "(dp1
S'com.typemytype.robofont.layerData'
p2
(dp3
s."
LayerCount: 2
Fore
SplineSet
146 0 m 1
 298 0 l 1
 298 836 l 1
 828 836 l 1
 828 0 l 1
 980 0 l 1
 980 1721 l 1
 828 1721 l 1
 828 942 l 1
 298 942 l 1
 298 1721 l 1
 146 1721 l 1
 146 0 l 1
EndSplineSet
EndChar

StartChar: Hbar
Encoding: 294 294 38
Width: 1118
VWidth: 0
Flags: W
PickledData: "(dp1
S'com.typemytype.robofont.layerData'
p2
(dp3
s."
LayerCount: 2
Fore
SplineSet
292 942 m 1
 292 1331 l 1
 822 1331 l 1
 822 942 l 1
 292 942 l 1
140 0 m 1
 292 0 l 1
 292 836 l 1
 822 836 l 1
 822 0 l 1
 974 0 l 1
 974 1331 l 1
 1014 1331 l 1
 1014 1425 l 1
 974 1425 l 1
 974 1721 l 1
 822 1721 l 1
 822 1425 l 1
 292 1425 l 1
 292 1721 l 1
 140 1721 l 1
 140 1425 l 1
 100 1425 l 1
 100 1331 l 1
 140 1331 l 1
 140 0 l 1
EndSplineSet
EndChar

StartChar: I
Encoding: 296 73 40
Width: 444
VWidth: 0
Flags: W
PickledData: "(dp1
S'com.typemytype.robofont.layerData'
p2
(dp3
s."
LayerCount: 2
Fore
SplineSet
145 0 m 1
 297 0 l 1
 297 1721 l 1
 145 1721 l 1
 145 0 l 1
EndSplineSet
EndChar

StartChar: J
Encoding: 307 74 51
Width: 566
VWidth: 0
Flags: W
PickledData: "(dp1
S'com.typemytype.robofont.layerData'
p2
(dp3
s."
LayerCount: 2
Fore
SplineSet
12 0 m 1
 91 0 l 2
 390 0 420 128 420 410 c 2
 420 1721 l 1
 268 1721 l 1
 268 410 l 2
 268 125 247 115 12 115 c 1
 12 0 l 1
EndSplineSet
EndChar

StartChar: K
Encoding: 309 75 53
Width: 981
VWidth: 0
Flags: W
PickledData: "(dp1
S'com.typemytype.robofont.layerData'
p2
(dp3
s."
LayerCount: 2
Fore
SplineSet
146 0 m 1
 298 0 l 1
 298 607 l 1
 466 909 l 1
 834 0 l 1
 995 0 l 1
 558 1011 l 1
 914 1721 l 1
 757 1721 l 1
 298 816 l 1
 298 1721 l 1
 146 1721 l 1
 146 0 l 1
EndSplineSet
EndChar

StartChar: L
Encoding: 311 76 55
Width: 772
VWidth: 0
Flags: W
PickledData: "(dp1
S'com.typemytype.robofont.layerData'
p2
(dp3
s."
LayerCount: 2
Fore
SplineSet
146 0 m 1
 779 0 l 1
 779 122 l 1
 298 122 l 1
 298 1721 l 1
 146 1721 l 1
 146 0 l 1
EndSplineSet
EndChar

StartChar: Lslash
Encoding: 316 321 60
Width: 827
VWidth: 0
Flags: W
PickledData: "(dp1
S'com.typemytype.robofont.layerData'
p2
(dp3
s."
LayerCount: 2
Fore
SplineSet
183 0 m 1
 816 0 l 1
 816 122 l 1
 335 122 l 1
 335 916 l 1
 586 1012 l 1
 586 1127 l 1
 335 1031 l 1
 335 1721 l 1
 183 1721 l 1
 183 974 l 1
 43 921 l 1
 43 806 l 1
 183 859 l 1
 183 0 l 1
EndSplineSet
EndChar

StartChar: M
Encoding: 317 77 61
Width: 1330
VWidth: 0
Flags: W
PickledData: "(dp1
S'com.typemytype.robofont.layerData'
p2
(dp3
s."
LayerCount: 2
Fore
SplineSet
146 0 m 1
 281 0 l 1
 281 1376 l 1
 599 0 l 1
 731 0 l 1
 1049 1377 l 1
 1049 0 l 1
 1184 0 l 1
 1184 1721 l 1
 997 1721 l 1
 869 1071 801 885 665 235 c 1
 333 1721 l 1
 146 1721 l 1
 146 0 l 1
EndSplineSet
EndChar

StartChar: N
Encoding: 318 78 62
Width: 1083
VWidth: 0
Flags: W
PickledData: "(dp1
S'com.typemytype.robofont.layerData'
p2
(dp3
s."
LayerCount: 2
Fore
SplineSet
146 0 m 1
 277 0 l 1
 277 1334 l 1
 823 0 l 1
 937 0 l 1
 937 1721 l 1
 808 1721 l 1
 808 358 l 1
 263 1721 l 1
 146 1721 l 1
 146 0 l 1
EndSplineSet
EndChar

StartChar: O
Encoding: 323 79 67
Width: 1106
VWidth: 0
Flags: W
PickledData: "(dp1
S'com.typemytype.robofont.layerData'
p2
(dp3
s."
LayerCount: 2
Fore
SplineSet
114 499 m 2
 114 210 211 -27 553 -27 c 0
 895 -27 992 210 992 499 c 2
 992 1220 l 2
 992 1511 887 1745 553 1745 c 0
 219 1745 114 1511 114 1220 c 2
 114 499 l 2
840 465 m 2
 840 261 777 95 553 95 c 0
 329 95 266 261 266 465 c 2
 266 1254 l 2
 266 1458 329 1623 553 1623 c 0
 777 1623 840 1458 840 1254 c 2
 840 465 l 2
EndSplineSet
EndChar

StartChar: OE
Encoding: 324 338 68
Width: 1499
VWidth: 0
Flags: W
PickledData: "(dp1
S'com.typemytype.robofont.layerData'
p2
(dp3
s."
LayerCount: 2
Fore
SplineSet
554 121 m 1
 330 123 267 278 267 465 c 2
 267 1254 l 2
 267 1446 330 1599 554 1599 c 2
 841 1599 l 1
 841 121 l 1
 554 121 l 1
115 499 m 2
 115 226 212 0 554 0 c 2
 1441 0 l 1
 1441 122 l 1
 993 122 l 1
 993 832 l 1
 1313 832 l 1
 1313 947 l 1
 993 947 l 1
 993 1599 l 1
 1441 1599 l 1
 1441 1721 l 1
 554 1721 l 2
 220 1721 115 1499 115 1220 c 2
 115 499 l 2
EndSplineSet
EndChar

StartChar: Oslash
Encoding: 332 216 76
Width: 1106
VWidth: 0
Flags: W
PickledData: "(dp1
S'com.typemytype.robofont.layerData'
p2
(dp3
s."
LayerCount: 2
Fore
SplineSet
992 499 m 2
 992 1220 l 2
 992 1399 952 1557 843 1652 c 1
 907 1850 l 1
 842 1870 l 1
 785 1692 l 1
 724 1726 648 1745 553 1745 c 0
 219 1745 114 1511 114 1220 c 2
 114 499 l 2
 114 319 152 160 262 65 c 1
 199 -132 l 1
 263 -152 l 1
 320 25 l 1
 381 -8 457 -27 553 -27 c 0
 895 -27 992 210 992 499 c 2
553 95 m 0
 469 95 407 119 363 159 c 1
 793 1495 l 1
 827 1430 840 1346 840 1254 c 2
 840 465 l 2
 840 261 777 95 553 95 c 0
266 1254 m 2
 266 1458 329 1623 553 1623 c 0
 637 1623 699 1600 742 1560 c 1
 313 224 l 1
 279 289 266 373 266 465 c 2
 266 1254 l 2
EndSplineSet
EndChar

StartChar: P
Encoding: 334 80 78
Width: 1004
VWidth: 0
Flags: W
PickledData: "(dp1
S'com.typemytype.robofont.layerData'
p2
(dp3
s."
LayerCount: 2
Fore
SplineSet
298 887 m 1
 298 1599 l 1
 584 1599 l 2
 743 1599 822 1494 822 1255 c 0
 822 1006 758 885 584 886 c 2
 298 887 l 1
146 0 m 1
 298 0 l 1
 298 765 l 1
 566 765 l 2
 894 765 974 1013 974 1258 c 0
 974 1506 874 1721 567 1721 c 2
 146 1721 l 1
 146 0 l 1
EndSplineSet
EndChar

StartChar: Q
Encoding: 335 81 79
Width: 1113
VWidth: 0
Flags: W
PickledData: "(dp1
S'com.typemytype.robofont.layerData'
p2
(dp3
s."
LayerCount: 2
Fore
SplineSet
840 465 m 2
 840 261 777 95 553 95 c 0
 329 95 266 261 266 465 c 2
 266 1254 l 2
 266 1458 329 1623 553 1623 c 0
 777 1623 840 1458 840 1254 c 2
 840 465 l 2
114 499 m 2
 114 210 211 -27 553 -27 c 0
 604 -27 650 -21 691 -11 c 1
 784 -115 880 -195 999 -212 c 1
 999 -98 l 1
 911 -86 845 -28 787 25 c 1
 942 111 992 291 992 499 c 2
 992 1220 l 2
 992 1511 887 1745 553 1745 c 0
 219 1745 114 1511 114 1220 c 2
 114 499 l 2
EndSplineSet
EndChar

StartChar: R
Encoding: 336 82 80
Width: 1067
VWidth: 0
Flags: W
PickledData: "(dp1
S'com.typemytype.robofont.layerData'
p2
(dp3
s."
LayerCount: 2
Fore
SplineSet
298 962 m 1
 298 1599 l 1
 604 1599 l 2
 782 1599 822 1452 822 1281 c 0
 822 1120 786 962 604 962 c 2
 298 962 l 1
146 0 m 1
 298 0 l 1
 298 840 l 1
 587 840 l 1
 838 0 l 1
 1000 0 l 1
 734 859 l 1
 923 928 974 1100 974 1276 c 0
 974 1515 904 1721 605 1721 c 2
 146 1721 l 1
 146 0 l 1
EndSplineSet
EndChar

StartChar: S
Encoding: 340 83 84
Width: 948
VWidth: 0
Flags: W
PickledData: "(dp1
S'com.typemytype.robofont.layerData'
p2
(dp3
s."
LayerCount: 2
Fore
SplineSet
68 415 m 1
 104 178 240 -27 492 -27 c 0
 723 -27 899 103 899 357 c 0
 899 555 748 697 613 845 c 2
 360 1120 l 2
 277 1210 219 1297 219 1394 c 0
 219 1549 322 1623 468 1623 c 0
 632 1623 725 1491 750 1330 c 1
 752 1316 l 1
 880 1356 l 1
 877 1372 l 2
 832 1613 695 1745 468 1745 c 0
 239 1745 72 1602 72 1374 c 0
 72 1245 153 1137 254 1030 c 2
 523 747 l 2
 648 615 754 490 754 344 c 0
 754 186 666 95 509 95 c 0
 305 95 223 273 202 454 c 1
 68 415 l 1
EndSplineSet
EndChar

StartChar: T
Encoding: 346 84 90
Width: 753
VWidth: 0
Flags: W
PickledData: "(dp1
S'com.typemytype.robofont.layerData'
p2
(dp3
s."
LayerCount: 2
Fore
SplineSet
299 0 m 1
 451 0 l 1
 451 1599 l 1
 789 1599 l 1
 789 1721 l 1
 -36 1721 l 1
 -36 1599 l 1
 299 1599 l 1
 299 0 l 1
EndSplineSet
EndChar

StartChar: Thorn
Encoding: 348 222 92
Width: 1058
VWidth: 0
Flags: W
PickledData: "(dp1
S'com.typemytype.robofont.layerData'
p2
(dp3
s."
LayerCount: 2
Fore
SplineSet
298 628 m 1
 298 1340 l 1
 584 1340 l 2
 743 1340 822 1235 822 996 c 0
 822 746 758 626 584 627 c 2
 298 628 l 1
146 0 m 1
 298 0 l 1
 298 506 l 1
 566 506 l 2
 894 506 974 754 974 999 c 0
 974 1247 874 1462 567 1462 c 2
 298 1462 l 1
 298 1721 l 1
 146 1721 l 1
 146 0 l 1
EndSplineSet
EndChar

StartChar: U
Encoding: 349 85 93
Width: 1132
VWidth: 0
Flags: W
PickledData: "(dp1
S'com.typemytype.robofont.layerData'
p2
(dp3
s."
LayerCount: 2
Fore
SplineSet
120 423 m 2
 120 181 212 -27 565 -27 c 0
 904 -27 994 181 994 423 c 2
 994 1721 l 1
 843 1721 l 1
 843 388 l 2
 843 201 773 95 565 95 c 0
 345 95 272 199 272 388 c 2
 272 1721 l 1
 120 1721 l 1
 120 423 l 2
EndSplineSet
EndChar

StartChar: V
Encoding: 360 86 104
Width: 949
VWidth: 0
Flags: W
PickledData: "(dp1
S'com.typemytype.robofont.layerData'
p2
(dp3
s."
LayerCount: 2
Fore
SplineSet
382 0 m 1
 581 0 l 1
 937 1721 l 1
 773 1721 l 1
 481 180 l 1
 176 1721 l 1
 12 1721 l 1
 382 0 l 1
EndSplineSet
EndChar

StartChar: W
Encoding: 361 87 105
Width: 1416
VWidth: 0
Flags: W
PickledData: "(dp1
S'com.typemytype.robofont.layerData'
p2
(dp3
s."
LayerCount: 2
Fore
SplineSet
311 0 m 1
 485 0 l 1
 717 1520 l 1
 932 0 l 1
 1107 0 l 1
 1393 1721 l 1
 1252 1721 l 1
 1018 249 l 1
 815 1721 l 1
 622 1721 l 1
 400 249 l 1
 165 1721 l 1
 23 1721 l 1
 311 0 l 1
EndSplineSet
EndChar

StartChar: X
Encoding: 366 88 110
Width: 951
VWidth: 0
Flags: W
PickledData: "(dp1
S'com.typemytype.robofont.layerData'
p2
(dp3
s."
LayerCount: 2
Fore
SplineSet
30 0 m 1
 187 0 l 1
 480 717 l 1
 778 0 l 1
 924 0 l 1
 557 850 l 1
 924 1722 l 1
 768 1722 l 1
 475 998 l 1
 173 1722 l 1
 30 1722 l 1
 397 866 l 1
 30 0 l 1
EndSplineSet
EndChar

StartChar: Y
Encoding: 367 89 111
Width: 888
VWidth: 0
Flags: W
PickledData: "(dp1
S'com.typemytype.robofont.layerData'
p2
(dp3
s."
LayerCount: 2
Fore
SplineSet
374 0 m 1
 526 0 l 1
 526 534 l 1
 890 1721 l 1
 741 1721 l 1
 617 1275 573 1155 451 709 c 1
 451 710 223 1463 152 1721 c 1
 -2 1721 l 1
 374 534 l 1
 374 0 l 1
EndSplineSet
EndChar

StartChar: Z
Encoding: 372 90 116
Width: 866
VWidth: 0
Flags: W
PickledData: "(dp1
S'com.typemytype.robofont.layerData'
p2
(dp3
s."
LayerCount: 2
Fore
SplineSet
60 0 m 1
 821 0 l 1
 821 122 l 1
 216 122 l 1
 821 1580 l 1
 821 1721 l 1
 124 1721 l 1
 124 1599 l 1
 665 1599 l 1
 60 141 l 1
 60 0 l 1
EndSplineSet
EndChar

StartChar: a
Encoding: 376 97 120
Width: 808
VWidth: 0
Flags: W
PickledData: "(dp1
S'com.typemytype.robofont.layerData'
p2
(dp3
s."
LayerCount: 2
Fore
SplineSet
554 244 m 1
 510 158 423 98 347 98 c 0
 291 98 226 142 226 267 c 0
 226 431 347 523 554 666 c 1
 554 244 l 1
584 0 m 1
 724 0 l 1
 724 0 706 135 706 276 c 2
 706 852 l 2
 706 1017 656 1225 402 1225 c 0
 227 1225 114 1098 98 889 c 1
 254 889 l 1
 254 896 l 1
 266 1101 348 1124 407 1124 c 0
 480 1124 553 1094 554 743 c 1
 554 733 l 1
 82 539 75 394 75 239 c 0
 75 72 196 -27 312 -27 c 0
 390 -27 497 26 565 145 c 1
 584 0 l 1
EndSplineSet
EndChar

StartChar: acute
Encoding: 380 180 124
Width: 444
VWidth: 0
Flags: W
PickledData: "(dp1
S'com.typemytype.robofont.layerData'
p2
(dp3
s."
LayerCount: 2
Fore
SplineSet
96 1324 m 1
 152 1324 l 1
 381 1722 l 1
 219 1722 l 1
 96 1324 l 1
EndSplineSet
EndChar

StartChar: ae
Encoding: 382 230 126
Width: 1255
VWidth: 0
Flags: W
PickledData: "(dp1
S'com.typemytype.robofont.layerData'
p2
(dp3
s."
LayerCount: 2
Fore
SplineSet
707 708 m 2
 707 948 708 1124 893 1124 c 0
 970 1124 1010 1051 1010 970 c 0
 1010 875 984 759 707 704 c 1
 707 708 l 2
553 489 m 2
 553 383 493 97 328 97 c 0
 276 97 225 150 225 267 c 0
 225 431 296 494 553 586 c 1
 553 489 l 2
253 889 m 1
 253 895 254 902 254 908 c 0
 269 1102 348 1124 406 1124 c 0
 479 1124 551 1095 553 751 c 1
 553 675 l 1
 81 531 74 394 74 239 c 0
 74 72 195 -27 311 -27 c 0
 389 -27 545 19 598 209 c 1
 628 60 723 -27 865 -27 c 0
 1087 -27 1137 142 1156 345 c 2
 1158 367 l 1
 1018 367 l 1
 1018 346 l 1
 1013 120 947 74 868 74 c 0
 774 74 706 148 706 445 c 2
 706 620 l 1
 706 620 1144 676 1144 958 c 0
 1144 1124 1028 1225 886 1225 c 0
 784 1225 696 1189 633 1072 c 1
 590 1170 519 1225 401 1225 c 0
 226 1225 113 1098 97 889 c 1
 253 889 l 1
EndSplineSet
EndChar

StartChar: ampersand
Encoding: 385 38 129
Width: 1116
VWidth: 0
Flags: W
PickledData: "(dp1
S'com.typemytype.robofont.layerData'
p2
(dp3
s."
LayerCount: 2
Fore
SplineSet
442 927 m 1
 332 1112 292 1245 292 1364 c 0
 292 1465 339 1623 497 1623 c 0
 634 1623 692 1536 692 1416 c 0
 692 1262 593 1072 442 927 c 1
735 229 m 1
 645 145 539 94 442 94 c 0
 273 94 208 190 208 313 c 0
 208 455 295 631 406 734 c 1
 735 229 l 1
1094 122 m 1
 1028 122 955 156 890 228 c 1
 1021 396 1096 610 1096 753 c 1
 968 753 l 1
 968 594 908 442 819 324 c 1
 498 817 l 1
 732 1026 836 1247 836 1420 c 0
 836 1611 711 1745 493 1745 c 0
 276 1745 140 1591 140 1370 c 0
 140 1236 213 1064 346 844 c 1
 168 700 68 474 68 298 c 0
 68 118 178 -26 434 -26 c 0
 577 -26 702 38 804 134 c 1
 878 48 993 -8 1094 -14 c 1
 1094 122 l 1
EndSplineSet
EndChar

StartChar: asciicircum
Encoding: 388 94 132
Width: 739
VWidth: 0
Flags: W
PickledData: "(dp1
S'com.typemytype.robofont.layerData'
p2
(dp3
s."
LayerCount: 2
Fore
SplineSet
220 896 m 1
 373 1436 l 1
 528 896 l 1
 703 896 l 1
 477 1459 l 1
 270 1459 l 1
 270 1459 111 1066 43 896 c 1
 220 896 l 1
EndSplineSet
EndChar

StartChar: asciitilde
Encoding: 389 126 133
Width: 815
VWidth: 0
Flags: W
PickledData: "(dp1
S'com.typemytype.robofont.layerData'
p2
(dp3
s."
LayerCount: 2
Fore
SplineSet
213 959 m 1
 220 1012 239 1025 275 1025 c 0
 355 1025 451 947 558 947 c 0
 732 947 729 1127 732 1137 c 1
 616 1137 l 1
 609 1084 586 1070 550 1070 c 0
 473 1070 357 1146 275 1146 c 0
 114 1146 100 1003 98 959 c 1
 213 959 l 1
EndSplineSet
EndChar

StartChar: asterisk
Encoding: 390 42 134
Width: 760
VWidth: 0
Flags: W
PickledData: "(dp1
S'com.typemytype.robofont.layerData'
p2
(dp3
s."
LayerCount: 2
Fore
SplineSet
147 963 m 1
 235 911 l 1
 384 1163 l 1
 534 911 l 1
 623 960 l 1
 449 1210 l 1
 713 1312 l 1
 678 1402 l 1
 424 1282 l 1
 444 1583 l 1
 325 1583 l 1
 343 1281 l 1
 91 1400 l 1
 55 1311 l 1
 320 1210 l 1
 147 963 l 1
EndSplineSet
EndChar

StartChar: at
Encoding: 391 64 135
Width: 1434
VWidth: 0
Flags: W
PickledData: "(dp1
S'com.typemytype.robofont.layerData'
p2
(dp3
s."
LayerCount: 2
Fore
SplineSet
834 644 m 1
 799 599 764 561 687 561 c 0
 611 561 572 642 572 840 c 0
 572 1020 604 1174 702 1174 c 0
 737 1174 781 1158 834 1121 c 1
 834 644 l 1
1091 198 m 1
 1014 184 900 159 780 159 c 0
 517 159 224 272 224 864 c 0
 224 1508 603 1546 730 1546 c 0
 1017 1546 1219 1414 1219 881 c 0
 1219 611 1149 561 1090 561 c 0
 993 561 986 661 986 714 c 2
 986 1274 l 1
 834 1274 l 1
 834 1204 l 1
 778 1253 711 1280 653 1280 c 0
 529 1280 421 1144 421 839 c 0
 421 722 457 447 651 447 c 0
 744 447 839 486 864 603 c 1
 895 511 993 446 1094 446 c 0
 1229 446 1371 564 1371 888 c 0
 1371 1390 1131 1667 726 1667 c 0
 372 1667 72 1393 72 868 c 0
 72 247 369 40 785 40 c 0
 889 40 1000 55 1116 80 c 1
 1091 198 l 1
EndSplineSet
EndChar

StartChar: b
Encoding: 393 98 137
Width: 871
VWidth: 0
Flags: W
PickledData: "(dp1
S'com.typemytype.robofont.layerData'
p2
(dp3
s."
LayerCount: 2
Fore
SplineSet
615 545 m 2
 615 96 542 84 466 84 c 0
 405 84 329 134 270 205 c 1
 270 995 l 1
 332 1064 400 1114 471 1114 c 0
 544 1114 615 1093 615 640 c 2
 615 545 l 2
120 0 m 1
 270 0 l 1
 270 113 l 1
 340 4 437 -27 512 -27 c 0
 623 -27 765 28 765 546 c 2
 765 641 l 2
 765 1178 623 1225 501 1225 c 0
 419 1225 334 1179 270 1085 c 1
 270 1721 l 1
 120 1721 l 1
 120 0 l 1
EndSplineSet
EndChar

StartChar: backslash
Encoding: 394 92 138
Width: 639
VWidth: 0
Flags: W
PickledData: "(dp1
S'com.typemytype.robofont.layerData'
p2
(dp3
s."
LayerCount: 2
Fore
SplineSet
541 0 m 1
 685 0 l 1
 133 1721 l 1
 -12 1721 l 1
 541 0 l 1
EndSplineSet
EndChar

StartChar: bar
Encoding: 395 124 139
Width: 416
VWidth: 0
Flags: W
PickledData: "(dp1
S'com.typemytype.robofont.layerData'
p2
(dp3
s."
LayerCount: 2
Fore
SplineSet
150 -128 m 1
 268 -128 l 1
 268 1746 l 1
 150 1746 l 1
 150 -128 l 1
EndSplineSet
EndChar

StartChar: braceleft
Encoding: 396 123 140
Width: 520
VWidth: 0
Flags: W
PickledData: "(dp1
S'com.typemytype.robofont.layerData'
p2
(dp3
s."
LayerCount: 2
Fore
SplineSet
511 56 m 1
 302 56 302 230 302 550 c 0
 302 684 282 820 139 862 c 1
 282 904 302 1040 302 1174 c 0
 302 1494 302 1668 511 1668 c 1
 511 1781 l 1
 168 1781 166 1472 166 1115 c 0
 166 1027 151 956 35 956 c 1
 35 768 l 1
 151 768 166 697 166 609 c 0
 166 252 168 -57 511 -57 c 1
 511 56 l 1
EndSplineSet
EndChar

StartChar: braceright
Encoding: 397 125 141
Width: 530
VWidth: 0
Flags: W
PickledData: "(dp1
S'com.typemytype.robofont.layerData'
p2
(dp3
s."
LayerCount: 2
Fore
SplineSet
25 -57 m 1
 368 -57 370 252 370 609 c 0
 370 697 385 768 501 768 c 1
 501 956 l 1
 385 956 370 1027 370 1115 c 0
 370 1472 368 1781 25 1781 c 1
 25 1668 l 1
 234 1668 234 1494 234 1174 c 0
 234 1040 254 904 397 862 c 1
 254 820 234 684 234 550 c 0
 234 230 234 56 25 56 c 1
 25 -57 l 1
EndSplineSet
EndChar

StartChar: bracketleft
Encoding: 398 91 142
Width: 494
VWidth: 0
Flags: W
PickledData: "(dp1
S'com.typemytype.robofont.layerData'
p2
(dp3
s."
LayerCount: 2
Fore
SplineSet
150 -64 m 1
 481 -64 l 1
 481 17 l 1
 302 17 l 1
 302 1698 l 1
 481 1698 l 1
 481 1779 l 1
 150 1779 l 1
 150 -64 l 1
EndSplineSet
EndChar

StartChar: bracketright
Encoding: 399 93 143
Width: 504
VWidth: 0
Flags: W
PickledData: "(dp1
S'com.typemytype.robofont.layerData'
p2
(dp3
s."
LayerCount: 2
Fore
SplineSet
25 -64 m 1
 356 -64 l 1
 356 1779 l 1
 25 1779 l 1
 25 1698 l 1
 204 1698 l 1
 204 17 l 1
 25 17 l 1
 25 -64 l 1
EndSplineSet
EndChar

StartChar: breve
Encoding: 400 728 144
Width: 739
VWidth: 0
Flags: W
PickledData: "(dp1
S'com.typemytype.robofont.layerData'
p2
(dp3
s."
LayerCount: 2
Fore
SplineSet
92 1581 m 1
 101 1364 258 1313 368 1313 c 0
 478 1313 635 1364 644 1581 c 1
 533 1581 l 1
 513 1443 441 1422 368 1422 c 0
 295 1422 223 1443 203 1581 c 1
 92 1581 l 1
EndSplineSet
EndChar

StartChar: brokenbar
Encoding: 401 166 145
Width: 403
VWidth: 0
Flags: W
PickledData: "(dp1
S'com.typemytype.robofont.layerData'
p2
(dp3
s."
LayerCount: 2
Fore
SplineSet
137 889 m 1
 269 889 l 1
 269 1441 l 1
 137 1441 l 1
 137 889 l 1
137 -14 m 1
 269 -14 l 1
 269 537 l 1
 137 537 l 1
 137 -14 l 1
EndSplineSet
EndChar

StartChar: bullet
Encoding: 402 8226 146
Width: 565
VWidth: 0
Flags: W
PickledData: "(dp1
S'com.typemytype.robofont.layerData'
p2
(dp3
s."
LayerCount: 2
Fore
SplineSet
104 767 m 0
 104 654 176 588 286 588 c 0
 399 588 469 654 469 767 c 0
 469 883 399 949 286 949 c 0
 176 949 104 874 104 767 c 0
EndSplineSet
EndChar

StartChar: c
Encoding: 403 99 147
Width: 816
VWidth: 0
Flags: W
PickledData: "(dp1
S'com.typemytype.robofont.layerData'
p2
(dp3
s."
LayerCount: 2
Fore
SplineSet
106 568 m 2
 106 267 106 -27 433 -27 c 0
 680 -27 728 164 738 396 c 1
 738 403 l 1
 587 403 l 1
 587 393 l 1
 577 164 540 74 433 74 c 0
 285 74 256 208 256 568 c 2
 256 630 l 2
 256 984 276 1124 433 1124 c 0
 544 1124 579 1034 587 815 c 1
 587 806 l 1
 737 806 l 1
 737 810 736 813 736 817 c 0
 724 1033 672 1225 433 1225 c 0
 106 1225 106 909 106 630 c 2
 106 568 l 2
EndSplineSet
EndChar

StartChar: caron
Encoding: 405 711 149
Width: 618
VWidth: 0
Flags: W
PickledData: "(dp1
S'com.typemytype.robofont.layerData'
p2
(dp3
s."
LayerCount: 2
Fore
SplineSet
283 1324 m 1
 339 1324 l 1
 548 1671 l 1
 406 1671 l 1
 311 1434 l 1
 216 1671 l 1
 74 1671 l 1
 283 1324 l 1
EndSplineSet
EndChar

StartChar: cedilla
Encoding: 410 184 154
Width: 449
VWidth: 0
Flags: W
PickledData: "(dp1
S'com.typemytype.robofont.layerData'
p2
(dp3
s."
LayerCount: 2
Fore
SplineSet
111 -394 m 1
 270 -394 361 -345 361 -277 c 0
 361 -229 316 -172 219 -115 c 1
 219 0 l 1
 155 0 l 1
 155 -134 l 1
 214 -173 258 -226 258 -268 c 0
 258 -307 218 -335 111 -335 c 1
 111 -394 l 1
EndSplineSet
EndChar

StartChar: cent
Encoding: 411 162 155
Width: 760
VWidth: 0
Flags: W
PickledData: "(dp1
S'com.typemytype.robofont.layerData'
p2
(dp3
s."
LayerCount: 2
Fore
SplineSet
370 87 m 1
 435 87 l 1
 435 240 l 1
 653 256 697 437 707 657 c 0
 707 661 708 665 708 669 c 1
 557 669 l 1
 557 664 556 658 556 652 c 0
 550 528 544 339 400 339 c 0
 248 339 226 476 226 794 c 2
 226 856 l 1
 230 1173 237 1309 401 1309 c 0
 549 1309 553 1116 557 1006 c 1
 557 992 l 1
 707 992 l 1
 707 997 706 1001 706 1006 c 0
 694 1211 645 1393 434 1409 c 1
 434 1543 l 1
 369 1543 l 1
 369 1410 l 1
 76 1390 76 1105 76 856 c 2
 76 794 l 2
 76 523 76 258 370 240 c 1
 370 87 l 1
EndSplineSet
EndChar

StartChar: circumflex
Encoding: 412 710 156
Width: 713
VWidth: 0
Flags: W
PickledData: "(dp1
S'com.typemytype.robofont.layerData'
p2
(dp3
s."
LayerCount: 2
Fore
SplineSet
94 1408 m 1
 207 1408 l 1
 356 1707 l 1
 506 1408 l 1
 616 1408 l 1
 463 1715 l 1
 250 1715 l 1
 94 1408 l 1
EndSplineSet
EndChar

StartChar: colon
Encoding: 413 58 157
Width: 426
VWidth: 0
Flags: W
PickledData: "(dp1
S'com.typemytype.robofont.layerData'
p2
(dp3
s."
LayerCount: 2
Fore
SplineSet
125 275 m 1
 310 275 l 1
 310 454 l 1
 125 454 l 1
 125 275 l 1
125 813 m 1
 310 813 l 1
 310 992 l 1
 125 992 l 1
 125 813 l 1
EndSplineSet
EndChar

StartChar: comma
Encoding: 414 44 158
Width: 389
VWidth: 0
Flags: W
PickledData: "(dp1
S'com.typemytype.robofont.layerData'
p2
(dp3
s."
LayerCount: 2
Fore
SplineSet
160 -256 m 1
 301 -241 296 -50 296 179 c 1
 111 179 l 1
 111 0 l 1
 239 0 l 1
 239 -47 225 -168 133 -201 c 1
 160 -256 l 1
EndSplineSet
EndChar

StartChar: copyright
Encoding: 415 169 159
Width: 1378
VWidth: 0
Flags: W
PickledData: "(dp1
S'com.typemytype.robofont.layerData'
p2
(dp3
s."
LayerCount: 2
Fore
SplineSet
696 67 m 0
 337 67 156 361 156 657 c 0
 156 953 337 1247 696 1247 c 0
 1055 1247 1236 953 1236 657 c 0
 1236 361 1055 67 696 67 c 0
696 -2 m 0
 1114 -2 1326 327 1326 657 c 0
 1326 987 1114 1316 696 1316 c 0
 278 1316 66 987 66 657 c 0
 66 327 278 -2 696 -2 c 0
830 505 m 1
 827 394 808 294 701 294 c 0
 566 294 555 395 555 667 c 0
 555 939 566 1040 701 1040 c 0
 808 1040 827 940 830 829 c 1
 917 829 l 1
 917 831 926 1112 702 1112 c 0
 465 1112 462 878 462 667 c 0
 462 456 465 222 702 222 c 0
 917 222 917 503 917 505 c 1
 830 505 l 1
EndSplineSet
EndChar

StartChar: currency
Encoding: 416 164 160
Width: 1028
VWidth: 0
Flags: W
PickledData: "(dp1
S'com.typemytype.robofont.layerData'
p2
(dp3
s."
LayerCount: 2
Fore
SplineSet
516 311 m 1
 312 315 211 475 211 635 c 0
 211 795 312 954 516 959 c 1
 719 954 821 795 821 635 c 0
 821 475 719 315 516 311 c 1
168 189 m 1
 222 151 l 1
 299 275 l 1
 358 240 430 219 516 219 c 0
 609 219 686 244 747 284 c 1
 831 151 l 1
 885 189 l 1
 799 325 l 1
 883 405 926 520 926 635 c 0
 926 747 885 861 803 941 c 1
 885 1070 l 1
 831 1108 l 1
 752 982 l 1
 690 1025 611 1051 516 1051 c 0
 428 1051 354 1029 294 992 c 1
 222 1108 l 1
 168 1070 l 1
 241 953 l 1
 151 873 106 753 106 635 c 0
 106 514 153 393 246 313 c 1
 168 189 l 1
EndSplineSet
EndChar

StartChar: d
Encoding: 417 100 161
Width: 866
VWidth: 0
Flags: W
PickledData: "(dp1
S'com.typemytype.robofont.layerData'
p2
(dp3
s."
LayerCount: 2
Fore
SplineSet
596 205 m 1
 537 134 461 84 400 84 c 0
 324 84 251 96 251 545 c 2
 251 640 l 2
 251 1093 322 1114 395 1114 c 0
 466 1114 534 1064 596 995 c 1
 596 205 l 1
596 0 m 1
 746 0 l 1
 746 1721 l 1
 596 1721 l 1
 596 1085 l 1
 532 1179 447 1225 365 1225 c 0
 243 1225 101 1178 101 641 c 2
 101 546 l 2
 101 28 243 -27 354 -27 c 0
 429 -27 526 4 596 113 c 1
 596 0 l 1
EndSplineSet
EndChar

StartChar: daggerdbl
Encoding: 418 8225 162
Width: 590
VWidth: 0
Flags: W
PickledData: "(dp1
S'com.typemytype.robofont.layerData'
p2
(dp3
s."
LayerCount: 2
Fore
SplineSet
244 0 m 1
 362 0 l 1
 362 448 l 1
 586 448 l 1
 586 537 l 1
 362 537 l 1
 362 1114 l 1
 586 1114 l 1
 586 1197 l 1
 362 1197 l 1
 362 1459 l 1
 244 1459 l 1
 244 1197 l 1
 18 1197 l 1
 18 1114 l 1
 244 1114 l 1
 244 537 l 1
 18 537 l 1
 18 448 l 1
 244 448 l 1
 244 0 l 1
EndSplineSet
EndChar

StartChar: dcroat
Encoding: 420 273 164
Width: 892
VWidth: 0
Flags: W
PickledData: "(dp1
S'com.typemytype.robofont.layerData'
p2
(dp3
s."
LayerCount: 2
Fore
SplineSet
418 1399 m 1
 596 1399 l 1
 596 1085 l 1
 532 1179 447 1225 365 1225 c 0
 243 1225 101 1178 101 641 c 2
 101 546 l 2
 101 28 243 -27 354 -27 c 0
 429 -27 526 4 596 113 c 1
 596 0 l 1
 746 0 l 1
 746 1399 l 1
 860 1399 l 1
 860 1484 l 1
 746 1484 l 1
 746 1721 l 1
 596 1721 l 1
 596 1484 l 1
 418 1484 l 1
 418 1399 l 1
596 205 m 1
 537 134 461 84 400 84 c 0
 324 84 251 96 251 545 c 2
 251 640 l 2
 251 1093 322 1114 395 1114 c 0
 466 1114 534 1064 596 995 c 1
 596 205 l 1
EndSplineSet
EndChar

StartChar: degree
Encoding: 421 176 165
Width: 637
VWidth: 0
Flags: W
PickledData: "(dp1
S'com.typemytype.robofont.layerData'
p2
(dp3
s."
LayerCount: 2
Fore
SplineSet
317 1722 m 0
 164 1722 98 1610 98 1504 c 0
 98 1398 164 1286 317 1286 c 0
 470 1286 536 1398 536 1504 c 0
 536 1610 470 1722 317 1722 c 0
176 1504 m 0
 176 1570 210 1651 317 1651 c 0
 424 1651 458 1570 458 1504 c 0
 458 1438 424 1357 317 1357 c 0
 210 1357 176 1438 176 1504 c 0
EndSplineSet
EndChar

StartChar: dieresis
Encoding: 422 168 166
Width: 795
VWidth: 0
Flags: W
PickledData: "(dp1
S'com.typemytype.robofont.layerData'
p2
(dp3
s."
LayerCount: 2
Fore
SplineSet
497 1386 m 1
 681 1386 l 1
 681 1565 l 1
 497 1565 l 1
 497 1386 l 1
113 1386 m 1
 297 1386 l 1
 297 1565 l 1
 113 1565 l 1
 113 1386 l 1
EndSplineSet
EndChar

StartChar: divide
Encoding: 423 247 167
Width: 674
VWidth: 0
Flags: W
PickledData: "(dp1
S'com.typemytype.robofont.layerData'
p2
(dp3
s."
LayerCount: 2
Fore
SplineSet
227 233 m 1
 411 233 l 1
 411 412 l 1
 227 412 l 1
 227 233 l 1
227 879 m 1
 411 879 l 1
 411 1058 l 1
 227 1058 l 1
 227 879 l 1
35 576 m 1
 603 576 l 1
 603 691 l 1
 35 691 l 1
 35 576 l 1
EndSplineSet
EndChar

StartChar: dollar
Encoding: 424 36 168
Width: 948
VWidth: 0
Flags: W
PickledData: "(dp1
S'com.typemytype.robofont.layerData'
p2
(dp3
s."
LayerCount: 2
Fore
SplineSet
197 484 m 1
 63 445 l 1
 97 224 220 31 446 6 c 1
 446 -138 l 1
 534 -138 l 1
 534 4 l 1
 752 16 914 143 914 377 c 0
 914 547 772 677 628 795 c 1
 345 1020 l 1
 257 1093 204 1173 204 1254 c 0
 204 1415 318 1470 482 1470 c 0
 636 1470 744 1324 769 1167 c 1
 895 1206 l 1
 867 1429 727 1567 534 1591 c 1
 534 1747 l 1
 446 1747 l 1
 446 1594 l 1
 220 1588 57 1450 57 1234 c 0
 57 1121 132 1017 239 930 c 1
 534 700 l 2
 670 594 769 482 769 364 c 0
 769 187 647 125 500 125 c 1
 311 131 216 293 197 484 c 1
EndSplineSet
EndChar

StartChar: dotaccent
Encoding: 425 729 169
Width: 410
VWidth: 0
Flags: W
PickledData: "(dp1
S'com.typemytype.robofont.layerData'
p2
(dp3
s."
LayerCount: 2
Fore
SplineSet
113 1380 m 1
 297 1380 l 1
 297 1559 l 1
 113 1559 l 1
 113 1380 l 1
EndSplineSet
EndChar

StartChar: dotlessi
Encoding: 426 305 170
Width: 405
VWidth: 0
Flags: W
PickledData: "(dp1
S'com.typemytype.robofont.layerData'
p2
(dp3
s."
LayerCount: 2
Fore
SplineSet
132 0 m 1
 282 0 l 1
 282 1198 l 1
 132 1198 l 1
 132 0 l 1
EndSplineSet
EndChar

StartChar: e
Encoding: 427 101 171
Width: 829
VWidth: 0
Flags: W
PickledData: "(dp1
S'com.typemytype.robofont.layerData'
p2
(dp3
s."
LayerCount: 2
Fore
SplineSet
258 702 m 1
 258 976 259 1124 444 1124 c 0
 610 1124 587 885 590 702 c 1
 258 702 l 1
106 552 m 1
 102 100 193 -27 438 -27 c 0
 662 -27 717 161 735 367 c 1
 595 367 l 1
 593 138 513 74 436 74 c 0
 324 74 257 122 257 445 c 2
 257 628 l 1
 737 628 l 1
 739 676 739 702 739 751 c 0
 739 1074 654 1225 437 1225 c 0
 247 1225 109 1146 106 719 c 1
 106 552 l 1
EndSplineSet
EndChar

StartChar: eight
Encoding: 433 56 177
Width: 954
VWidth: 0
Flags: W
PickledData: "(dp1
S'com.typemytype.robofont.layerData'
p2
(dp3
s."
LayerCount: 2
Fore
SplineSet
477 977 m 1
 292 988 231 1079 231 1317 c 0
 231 1547 312 1623 477 1623 c 0
 642 1623 723 1547 723 1317 c 0
 723 1079 662 988 477 977 c 1
477 847 m 1
 666 826 723 672 723 459 c 0
 723 165 637 95 477 95 c 0
 317 95 231 165 231 459 c 0
 231 672 288 826 477 847 c 1
314 910 m 1
 212 869 79 770 79 462 c 0
 79 179 182 -27 477 -27 c 0
 772 -27 875 179 875 462 c 0
 875 770 742 869 640 910 c 1
 769 948 875 1083 875 1316 c 0
 875 1556 764 1745 477 1745 c 0
 190 1745 79 1556 79 1316 c 0
 79 1083 185 948 314 910 c 1
EndSplineSet
EndChar

StartChar: emdash
Encoding: 435 8212 179
Width: 1194
VWidth: 0
Flags: W
PickledData: "(dp1
S'com.typemytype.robofont.layerData'
p2
(dp3
s."
LayerCount: 2
Fore
SplineSet
117 448 m 1
 1091 448 l 1
 1091 563 l 1
 117 563 l 1
 117 448 l 1
EndSplineSet
EndChar

StartChar: endash
Encoding: 436 8211 180
Width: 793
VWidth: 0
Flags: W
PickledData: "(dp1
S'com.typemytype.robofont.layerData'
p2
(dp3
s."
LayerCount: 2
Fore
SplineSet
117 448 m 1
 691 448 l 1
 691 563 l 1
 117 563 l 1
 117 448 l 1
EndSplineSet
EndChar

StartChar: equal
Encoding: 438 61 182
Width: 750
VWidth: 0
Flags: W
PickledData: "(dp1
S'com.typemytype.robofont.layerData'
p2
(dp3
s."
LayerCount: 2
Fore
SplineSet
127 255 m 1
 632 255 l 1
 632 370 l 1
 127 370 l 1
 127 255 l 1
127 576 m 1
 632 576 l 1
 632 691 l 1
 127 691 l 1
 127 576 l 1
EndSplineSet
EndChar

StartChar: eth
Encoding: 439 240 183
Width: 877
VWidth: 0
Flags: W
PickledData: "(dp1
S'com.typemytype.robofont.layerData'
p2
(dp3
s."
LayerCount: 2
Fore
SplineSet
234 545 m 1
 236 876 295 977 402 977 c 0
 468 977 562 960 594 931 c 1
 604 778 609 653 609 551 c 0
 609 147 535 95 412 95 c 0
 296 95 234 197 234 531 c 2
 234 545 l 1
84 532 m 2
 84 214 174 -27 412 -27 c 0
 663 -27 758 172 758 510 c 2
 758 535 l 1
 757 929 724 1203 653 1389 c 1
 793 1421 l 1
 793 1516 l 1
 614 1475 l 1
 518 1656 368 1730 152 1745 c 1
 166 1623 l 1
 309 1611 409 1576 480 1445 c 1
 352 1416 l 1
 352 1321 l 1
 517 1358 l 1
 544 1281 567 1182 585 1054 c 1
 541 1083 478 1099 402 1099 c 0
 172 1099 85 856 84 537 c 1
 84 532 l 2
EndSplineSet
EndChar

StartChar: exclam
Encoding: 440 33 184
Width: 434
VWidth: 0
Flags: W
PickledData: "(dp1
S'com.typemytype.robofont.layerData'
p2
(dp3
s."
LayerCount: 2
Fore
SplineSet
138 0 m 1
 323 0 l 1
 323 179 l 1
 138 179 l 1
 138 0 l 1
197 388 m 1
 251 388 l 1
 311 1719 l 1
 117 1719 l 1
 197 388 l 1
EndSplineSet
EndChar

StartChar: exclamdown
Encoding: 441 161 185
Width: 434
VWidth: 0
Flags: W
PickledData: "(dp1
S'com.typemytype.robofont.layerData'
p2
(dp3
s."
LayerCount: 2
Fore
SplineSet
304 1377 m 1
 119 1377 l 1
 119 1198 l 1
 304 1198 l 1
 304 1377 l 1
245 989 m 1
 191 989 l 1
 131 -343 l 1
 325 -343 l 1
 245 989 l 1
EndSplineSet
EndChar

StartChar: f
Encoding: 442 102 186
Width: 532
VWidth: 0
Flags: W
PickledData: "(dp1
S'com.typemytype.robofont.layerData'
p2
(dp3
s."
LayerCount: 2
Fore
SplineSet
177 0 m 1
 327 0 l 1
 327 1114 l 1
 519 1114 l 1
 519 1198 l 1
 327 1198 l 1
 327 1378 l 2
 327 1449 322 1536 442 1536 c 0
 455 1536 504 1533 516 1530 c 1
 516 1639 l 1
 479 1648 435 1652 394 1652 c 0
 161 1652 177 1425 177 1327 c 2
 177 1198 l 1
 10 1198 l 1
 10 1114 l 1
 177 1114 l 1
 177 0 l 1
EndSplineSet
EndChar

StartChar: five
Encoding: 443 53 187
Width: 948
VWidth: 0
Flags: W
PickledData: "(dp1
S'com.typemytype.robofont.layerData'
p2
(dp3
s."
LayerCount: 2
Fore
SplineSet
123 430 m 1
 123 140 229 -27 501 -27 c 0
 781 -27 889 224 889 536 c 0
 889 834 799 1076 540 1076 c 0
 436 1076 334 1031 273 966 c 1
 294 1599 l 1
 787 1599 l 1
 801 1721 l 1
 142 1721 l 1
 142 814 l 1
 264 814 l 1
 329 913 431 954 510 954 c 0
 668 954 737 845 737 535 c 0
 737 209 659 95 501 95 c 0
 350 95 275 156 275 441 c 1
 123 430 l 1
EndSplineSet
EndChar

StartChar: foundryicon
Encoding: 444 -1 188
Width: 1362
VWidth: 0
Flags: W
PickledData: "(dp1
S'com.typemytype.robofont.layerData'
p2
(dp3
s."
LayerCount: 2
Fore
SplineSet
221 277 m 1
 680 604 l 1
 1149 277 l 1
 979 819 l 1
 1440 1168 l 1
 868 1168 l 1
 680 1710 l 1
 502 1168 l 1
 -70 1157 l 1
 389 819 l 1
 221 277 l 1
EndSplineSet
EndChar

StartChar: four
Encoding: 445 52 189
Width: 848
VWidth: 0
Flags: W
PickledData: "(dp1
S'com.typemytype.robofont.layerData'
p2
(dp3
s."
LayerCount: 2
Fore
SplineSet
186 622 m 1
 504 1596 l 1
 505 622 l 1
 186 622 l 1
505 0 m 1
 657 0 l 1
 657 509 l 1
 828 509 l 1
 828 622 l 1
 657 622 l 1
 657 1723 l 1
 424 1723 l 1
 27 614 l 1
 27 509 l 1
 505 509 l 1
 505 0 l 1
EndSplineSet
EndChar

StartChar: fraction
Encoding: 446 8260 190
Width: 651
VWidth: 0
Flags: W
PickledData: "(dp1
S'com.typemytype.robofont.layerData'
p2
(dp3
s."
LayerCount: 2
Fore
SplineSet
-29 0 m 1
 115 0 l 1
 668 1721 l 1
 523 1721 l 1
 -29 0 l 1
EndSplineSet
EndChar

StartChar: g
Encoding: 447 103 191
Width: 881
VWidth: 0
Flags: W
PickledData: "(dp1
S'com.typemytype.robofont.layerData'
p2
(dp3
s."
LayerCount: 2
Fore
SplineSet
428 468 m 0
 252 468 232 675 232 776 c 0
 232 869 252 1103 428 1103 c 0
 603 1103 623 869 623 776 c 0
 623 676 602 468 428 468 c 0
524 3 m 1
 636 -18 683 -61 683 -157 c 0
 683 -283 486 -286 418 -286 c 0
 322 -286 159 -291 159 -191 c 0
 159 -115 250 5 310 49 c 1
 524 3 l 1
214 210 m 0
 227 271 260 338 283 382 c 1
 312 370 372 358 427 358 c 0
 678 358 775 566 775 800 c 0
 775 854 760 917 737 981 c 1
 776 1025 835 1066 888 1076 c 1
 888 1221 l 1
 802 1200 744 1104 706 1038 c 1
 635 1147 562 1224 423 1224 c 0
 170 1224 79 979 79 793 c 0
 79 659 119 509 219 418 c 1
 190 378 76 230 76 150 c 0
 76 108 230 71 241 69 c 1
 133 14 17 -90 17 -236 c 0
 17 -394 324 -393 416 -393 c 0
 537 -393 824 -372 824 -130 c 0
 824 22 669 84 469 125 c 0
 248 170 206 174 214 210 c 0
EndSplineSet
EndChar

StartChar: gcommaaccent
Encoding: 450 291 194
Width: 929
VWidth: 0
Flags: W
PickledData: "(dp1
S'com.typemytype.robofont.layerData'
p2
(dp3
s."
LayerCount: 2
Fore
SplineSet
501 1727 m 1
 360 1712 365 1521 365 1292 c 1
 550 1292 l 1
 550 1471 l 1
 422 1471 l 1
 422 1518 436 1639 528 1672 c 1
 501 1727 l 1
428 468 m 0
 252 468 232 675 232 776 c 0
 232 869 252 1103 428 1103 c 0
 603 1103 623 869 623 776 c 0
 623 676 602 468 428 468 c 0
524 3 m 1
 636 -18 683 -61 683 -157 c 0
 683 -283 486 -286 418 -286 c 0
 322 -286 159 -291 159 -191 c 0
 159 -115 250 5 310 49 c 1
 524 3 l 1
214 210 m 0
 227 271 260 338 283 382 c 1
 312 370 372 358 427 358 c 0
 678 358 775 566 775 800 c 0
 775 854 760 917 737 981 c 1
 776 1025 835 1066 888 1076 c 1
 888 1221 l 1
 802 1200 744 1104 706 1038 c 1
 635 1147 562 1224 423 1224 c 0
 170 1224 79 979 79 793 c 0
 79 659 119 509 219 418 c 1
 190 378 76 230 76 150 c 0
 76 108 230 71 241 69 c 1
 133 14 17 -90 17 -236 c 0
 17 -394 324 -393 416 -393 c 0
 537 -393 824 -372 824 -130 c 0
 824 22 669 84 469 125 c 0
 248 170 206 174 214 210 c 0
EndSplineSet
EndChar

StartChar: germandbls
Encoding: 452 223 196
Width: 1053
VWidth: 0
Flags: W
PickledData: "(dp1
S'com.typemytype.robofont.layerData'
p2
(dp3
s."
LayerCount: 2
Fore
SplineSet
137 0 m 1
 289 0 l 1
 289 1335 l 2
 289 1537 395 1638 499 1638 c 0
 602 1638 703 1533 703 1325 c 0
 703 1161 653 1006 483 1006 c 2
 376 1006 l 1
 376 889 l 1
 481 889 l 2
 751 889 809 685 809 453 c 0
 809 271 752 89 384 89 c 1
 384 -27 l 1
 848 -27 961 210 961 453 c 0
 961 629 909 909 650 967 c 1
 794 1025 866 1193 866 1328 c 0
 866 1606 687 1746 506 1746 c 0
 322 1746 137 1610 137 1338 c 2
 137 0 l 1
EndSplineSet
EndChar

StartChar: grave
Encoding: 453 96 197
Width: 451
VWidth: 0
Flags: W
PickledData: "(dp1
S'com.typemytype.robofont.layerData'
p2
(dp3
s."
LayerCount: 2
Fore
SplineSet
299 1324 m 1
 355 1324 l 1
 232 1722 l 1
 70 1722 l 1
 299 1324 l 1
EndSplineSet
EndChar

StartChar: greater
Encoding: 454 62 198
Width: 727
VWidth: 0
Flags: W
PickledData: "(dp1
S'com.typemytype.robofont.layerData'
p2
(dp3
s."
LayerCount: 2
Fore
SplineSet
102 94 m 1
 671 494 l 1
 671 709 l 1
 526 809 102 1109 102 1109 c 1
 102 942 l 1
 304 798 377 745 579 603 c 1
 102 261 l 1
 102 94 l 1
EndSplineSet
EndChar

StartChar: guillemotleft
Encoding: 455 171 199
Width: 874
VWidth: 0
Flags: W
PickledData: "(dp1
S'com.typemytype.robofont.layerData'
p2
(dp3
s."
LayerCount: 2
Fore
SplineSet
778 124 m 1
 778 324 l 1
 502 641 l 1
 778 956 l 1
 778 1156 l 1
 390 704 l 1
 390 576 l 1
 778 124 l 1
466 124 m 1
 466 324 l 1
 190 641 l 1
 466 956 l 1
 466 1156 l 1
 78 704 l 1
 78 576 l 1
 466 124 l 1
EndSplineSet
EndChar

StartChar: guillemotright
Encoding: 456 187 200
Width: 872
VWidth: 0
Flags: W
PickledData: "(dp1
S'com.typemytype.robofont.layerData'
p2
(dp3
s."
LayerCount: 2
Fore
SplineSet
423 124 m 1
 811 576 l 1
 811 704 l 1
 423 1156 l 1
 423 956 l 1
 699 641 l 1
 423 324 l 1
 423 124 l 1
111 124 m 1
 499 576 l 1
 499 704 l 1
 111 1156 l 1
 111 956 l 1
 387 641 l 1
 111 324 l 1
 111 124 l 1
EndSplineSet
EndChar

StartChar: guilsinglleft
Encoding: 457 8249 201
Width: 561
VWidth: 0
Flags: W
PickledData: "(dp1
S'com.typemytype.robofont.layerData'
p2
(dp3
s."
LayerCount: 2
Fore
SplineSet
466 124 m 1
 466 324 l 1
 190 641 l 1
 466 956 l 1
 466 1156 l 1
 78 704 l 1
 78 576 l 1
 466 124 l 1
EndSplineSet
EndChar

StartChar: guilsinglright
Encoding: 458 8250 202
Width: 561
VWidth: 0
Flags: W
PickledData: "(dp1
S'com.typemytype.robofont.layerData'
p2
(dp3
s."
LayerCount: 2
Fore
SplineSet
78 124 m 1
 466 576 l 1
 466 704 l 1
 78 1156 l 1
 78 956 l 1
 354 641 l 1
 78 324 l 1
 78 124 l 1
EndSplineSet
EndChar

StartChar: h
Encoding: 459 104 203
Width: 860
VWidth: 0
Flags: W
PickledData: "(dp1
S'com.typemytype.robofont.layerData'
p2
(dp3
s."
LayerCount: 2
Fore
SplineSet
120 0 m 1
 270 0 l 1
 270 992 l 1
 322 1063 405 1114 470 1114 c 0
 552 1114 596 1054 596 934 c 2
 596 0 l 1
 748 0 l 1
 748 942 l 2
 748 1134 634 1225 522 1225 c 0
 435 1225 334 1184 270 1085 c 1
 270 1721 l 1
 120 1721 l 1
 120 0 l 1
EndSplineSet
EndChar

StartChar: hbar
Encoding: 460 295 204
Width: 912
VWidth: 0
Flags: W
PickledData: "(dp1
S'com.typemytype.robofont.layerData'
p2
(dp3
s."
LayerCount: 2
Fore
SplineSet
154 0 m 1
 305 0 l 1
 305 992 l 1
 365 1049 444 1088 509 1088 c 0
 563 1088 630 1048 630 934 c 2
 630 0 l 1
 782 0 l 1
 782 942 l 2
 782 1134 660 1225 548 1225 c 0
 461 1225 368 1184 304 1085 c 1
 304 1403 l 1
 472 1403 l 1
 472 1498 l 1
 304 1498 l 1
 304 1721 l 1
 154 1721 l 1
 154 1498 l 1
 31 1498 l 1
 31 1403 l 1
 154 1403 l 1
 154 0 l 1
EndSplineSet
EndChar

StartChar: hungarumlaut
Encoding: 462 733 206
Width: 655
VWidth: 0
Flags: W
PickledData: "(dp1
S'com.typemytype.robofont.layerData'
p2
(dp3
s."
LayerCount: 2
Fore
SplineSet
331 1408 m 1
 390 1408 l 1
 597 1721 l 1
 437 1721 l 1
 331 1408 l 1
100 1408 m 1
 159 1408 l 1
 366 1721 l 1
 206 1721 l 1
 100 1408 l 1
EndSplineSet
EndChar

StartChar: hyphen
Encoding: 463 45 207
Width: 532
VWidth: 0
Flags: W
PickledData: "(dp1
S'com.typemytype.robofont.layerData'
p2
(dp3
s."
LayerCount: 2
Fore
SplineSet
117 448 m 1
 430 448 l 1
 430 563 l 1
 117 563 l 1
 117 448 l 1
EndSplineSet
EndChar

StartChar: i
Encoding: 464 105 208
Width: 405
VWidth: 0
Flags: W
PickledData: "(dp1
S'com.typemytype.robofont.layerData'
p2
(dp3
s."
LayerCount: 2
Fore
SplineSet
132 1472 m 1
 282 1472 l 1
 282 1651 l 1
 132 1651 l 1
 132 1472 l 1
132 0 m 1
 282 0 l 1
 282 1198 l 1
 132 1198 l 1
 132 0 l 1
EndSplineSet
EndChar

StartChar: integral
Encoding: 472 8747 216
Width: 500
VWidth: 0
Flags: W
PickledData: "(dp1
S'com.typemytype.robofont.layerData'
p2
(dp3
s."
LayerCount: 2
Fore
SplineSet
-41 -381 m 1
 -4 -390 40 -394 81 -394 c 0
 286 -394 298 -219 298 -110 c 2
 298 1378 l 2
 298 1449 293 1536 413 1536 c 0
 426 1536 475 1533 487 1530 c 1
 487 1639 l 1
 450 1648 406 1652 365 1652 c 0
 160 1652 148 1476 148 1367 c 2
 148 -120 l 2
 148 -191 153 -278 33 -278 c 0
 20 -278 -29 -275 -41 -272 c 1
 -41 -381 l 1
EndSplineSet
EndChar

StartChar: j
Encoding: 475 106 219
Width: 428
VWidth: 0
Flags: W
PickledData: "(dp1
S'com.typemytype.robofont.layerData'
p2
(dp3
s."
LayerCount: 2
Fore
SplineSet
148 1473 m 1
 298 1473 l 1
 298 1652 l 1
 148 1652 l 1
 148 1473 l 1
-44 -312 m 1
 -13 -318 24 -320 37 -320 c 0
 200 -320 298 -242 298 -46 c 2
 298 1198 l 1
 148 1198 l 1
 148 -18 l 2
 148 -80 148 -206 12 -206 c 0
 2 -206 -21 -205 -44 -204 c 1
 -44 -312 l 1
EndSplineSet
EndChar

StartChar: k
Encoding: 477 107 221
Width: 830
VWidth: 0
Flags: W
PickledData: "(dp1
S'com.typemytype.robofont.layerData'
p2
(dp3
s."
LayerCount: 2
Fore
SplineSet
120 0 m 1
 270 0 l 1
 270 470 l 1
 419 653 l 1
 654 0 l 1
 811 0 l 1
 526 744 l 1
 813 1198 l 1
 644 1198 l 1
 270 630 l 1
 270 1721 l 1
 120 1721 l 1
 120 0 l 1
EndSplineSet
EndChar

StartChar: kgreenlandic
Encoding: 479 312 223
Width: 880
VWidth: 0
Flags: W
PickledData: "(dp1
S'com.typemytype.robofont.layerData'
p2
(dp3
s."
LayerCount: 2
Fore
SplineSet
120 0 m 1
 270 0 l 1
 270 420 l 1
 411 619 l 1
 654 0 l 1
 816 0 l 1
 520 717 l 1
 815 1198 l 1
 644 1198 l 1
 270 600 l 1
 270 1198 l 1
 120 1198 l 1
 120 0 l 1
EndSplineSet
EndChar

StartChar: l
Encoding: 480 108 224
Width: 442
VWidth: 0
Flags: W
PickledData: "(dp1
S'com.typemytype.robofont.layerData'
p2
(dp3
s."
LayerCount: 2
Fore
SplineSet
146 0 m 1
 296 0 l 1
 296 1721 l 1
 146 1721 l 1
 146 0 l 1
EndSplineSet
EndChar

StartChar: less
Encoding: 485 60 229
Width: 727
VWidth: 0
Flags: W
PickledData: "(dp1
S'com.typemytype.robofont.layerData'
p2
(dp3
s."
LayerCount: 2
Fore
SplineSet
76 494 m 1
 219 392 645 94 645 94 c 1
 645 261 l 1
 443 407 369 458 168 603 c 1
 645 942 l 1
 645 1107 l 1
 76 709 l 1
 76 494 l 1
EndSplineSet
EndChar

StartChar: logicalnot
Encoding: 486 172 230
Width: 657
VWidth: 0
Flags: W
PickledData: "(dp1
S'com.typemytype.robofont.layerData'
p2
(dp3
s."
LayerCount: 2
Fore
SplineSet
100 448 m 1
 484 448 l 1
 484 256 l 1
 540 256 l 1
 540 563 l 1
 100 563 l 1
 100 448 l 1
EndSplineSet
EndChar

StartChar: lslash
Encoding: 487 322 231
Width: 530
VWidth: 0
Flags: W
PickledData: "(dp1
S'com.typemytype.robofont.layerData'
p2
(dp3
s."
LayerCount: 2
Fore
SplineSet
183 0 m 1
 333 0 l 1
 333 946 l 1
 469 1012 l 1
 469 1127 l 1
 333 1061 l 1
 333 1721 l 1
 183 1721 l 1
 183 988 l 1
 43 921 l 1
 43 806 l 1
 183 873 l 1
 183 0 l 1
EndSplineSet
EndChar

StartChar: m
Encoding: 488 109 232
Width: 1335
VWidth: 0
Flags: W
PickledData: "(dp1
S'com.typemytype.robofont.layerData'
p2
(dp3
s."
LayerCount: 2
Fore
SplineSet
120 0 m 1
 270 0 l 1
 270 995 l 1
 335 1068 415 1114 483 1114 c 0
 556 1114 610 1076 610 971 c 2
 610 0 l 1
 760 0 l 1
 760 1017 l 1
 820 1077 890 1114 950 1114 c 0
 1019 1114 1073 1075 1073 970 c 2
 1073 0 l 1
 1223 0 l 1
 1223 1001 l 2
 1223 1132 1113 1225 994 1225 c 0
 923 1225 821 1184 737 1089 c 1
 703 1169 618 1225 537 1225 c 0
 445 1225 353 1184 271 1087 c 1
 271 1198 l 1
 120 1198 l 1
 120 0 l 1
EndSplineSet
EndChar

StartChar: macron
Encoding: 489 175 233
Width: 702
VWidth: 0
Flags: W
PickledData: "(dp1
S'com.typemytype.robofont.layerData'
p2
(dp3
s."
LayerCount: 2
Fore
SplineSet
131 1383 m 1
 572 1383 l 1
 572 1498 l 1
 131 1498 l 1
 131 1383 l 1
EndSplineSet
EndChar

StartChar: minus
Encoding: 490 8722 234
Width: 702
VWidth: 0
Flags: W
PickledData: "(dp1
S'com.typemytype.robofont.layerData'
p2
(dp3
s."
LayerCount: 2
Fore
SplineSet
106 461 m 1
 610 461 l 1
 610 576 l 1
 106 576 l 1
 106 461 l 1
EndSplineSet
EndChar

StartChar: multiply
Encoding: 491 215 235
Width: 674
VWidth: 0
Flags: W
PickledData: "(dp1
S'com.typemytype.robofont.layerData'
p2
(dp3
s."
LayerCount: 2
Fore
SplineSet
51 410 m 1
 127 334 l 1
 319 526 l 1
 511 334 l 1
 587 410 l 1
 562 434 395 602 395 602 c 1
 587 794 l 1
 511 869 l 1
 319 677 l 1
 127 869 l 1
 51 794 l 1
 243 602 l 1
 51 410 l 1
EndSplineSet
EndChar

StartChar: n
Encoding: 492 110 236
Width: 860
VWidth: 0
Flags: W
PickledData: "(dp1
S'com.typemytype.robofont.layerData'
p2
(dp3
s."
LayerCount: 2
Fore
SplineSet
120 0 m 1
 270 0 l 1
 270 993 l 1
 330 1068 407 1114 469 1114 c 0
 538 1114 596 1071 596 944 c 2
 596 0 l 1
 748 0 l 1
 748 941 l 2
 748 1133 631 1225 524 1225 c 0
 433 1225 337 1183 270 1085 c 1
 270 1198 l 1
 120 1198 l 1
 120 0 l 1
EndSplineSet
EndChar

StartChar: nine
Encoding: 496 57 240
Width: 990
VWidth: 0
Flags: W
PickledData: "(dp1
S'com.typemytype.robofont.layerData'
p2
(dp3
s."
LayerCount: 2
Fore
SplineSet
724 907 m 1
 680 878 566 861 478 861 c 0
 313 861 232 951 232 1237 c 0
 232 1531 316 1623 488 1623 c 0
 646 1623 724 1550 724 1217 c 2
 724 907 l 1
118 395 m 2
 118 181 213 -27 488 -27 c 0
 776 -27 876 179 876 462 c 2
 876 1228 l 2
 876 1554 767 1745 488 1745 c 0
 194 1745 80 1524 80 1236 c 0
 80 956 191 739 478 739 c 0
 582 739 663 755 724 784 c 1
 724 459 l 2
 724 165 642 95 502 95 c 0
 349 95 266 147 260 421 c 1
 118 421 l 1
 118 395 l 2
EndSplineSet
EndChar

StartChar: numbersign
Encoding: 498 35 242
Width: 1020
VWidth: 0
Flags: W
PickledData: "(dp1
S'com.typemytype.robofont.layerData'
p2
(dp3
s."
LayerCount: 2
Fore
SplineSet
382 785 m 1
 449 1024 l 1
 626 1024 l 1
 559 785 l 1
 382 785 l 1
18 0 m 1
 162 0 l 1
 347 660 l 1
 524 660 l 1
 339 0 l 1
 483 0 l 1
 668 660 l 1
 907 660 l 1
 907 785 l 1
 703 785 l 1
 770 1024 l 1
 957 1024 l 1
 957 1139 l 1
 803 1139 l 1
 966 1721 l 1
 821 1721 l 1
 658 1139 l 1
 482 1139 l 1
 645 1721 l 1
 500 1721 l 1
 337 1139 l 1
 98 1139 l 1
 98 1024 l 1
 305 1024 l 1
 238 785 l 1
 48 785 l 1
 48 660 l 1
 203 660 l 1
 18 0 l 1
EndSplineSet
EndChar

StartChar: o
Encoding: 499 111 243
Width: 846
VWidth: 0
Flags: W
PickledData: "(dp1
S'com.typemytype.robofont.layerData'
p2
(dp3
s."
LayerCount: 2
Fore
SplineSet
106 568 m 2
 106 267 106 -27 423 -27 c 0
 740 -27 740 267 740 568 c 2
 740 630 l 2
 740 909 740 1225 423 1225 c 0
 106 1225 106 909 106 630 c 2
 106 568 l 2
256 630 m 2
 256 984 275 1124 423 1124 c 0
 569 1124 590 984 590 630 c 2
 590 568 l 2
 590 208 563 74 423 74 c 0
 283 74 256 208 256 568 c 2
 256 630 l 2
EndSplineSet
EndChar

StartChar: oe
Encoding: 504 339 248
Width: 1332
VWidth: 0
Flags: W
PickledData: "(dp1
S'com.typemytype.robofont.layerData'
p2
(dp3
s."
LayerCount: 2
Fore
SplineSet
744 702 m 1
 744 967 748 1124 930 1124 c 0
 1092 1124 1074 883 1076 702 c 1
 744 702 l 1
258 630 m 2
 258 984 277 1124 425 1124 c 0
 571 1124 592 984 592 630 c 2
 592 568 l 2
 592 208 565 74 425 74 c 0
 285 74 258 208 258 568 c 2
 258 630 l 2
108 568 m 2
 108 267 108 -27 425 -27 c 0
 547 -27 622 17 668 87 c 1
 721 3 804 -27 924 -27 c 0
 1147 -27 1202 162 1220 367 c 1
 1081 367 l 1
 1078 142 999 74 922 74 c 0
 810 74 743 122 743 445 c 2
 743 628 l 1
 1223 628 l 1
 1225 676 1225 702 1225 751 c 0
 1225 1074 1140 1225 923 1225 c 0
 817 1225 727 1200 668 1104 c 1
 622 1178 547 1225 425 1225 c 0
 108 1225 108 909 108 630 c 2
 108 568 l 2
EndSplineSet
EndChar

StartChar: ogonek
Encoding: 505 731 249
Width: 475
VWidth: 0
Flags: W
PickledData: "(dp1
S'com.typemytype.robofont.layerData'
p2
(dp3
s."
LayerCount: 2
Fore
SplineSet
378 -288 m 1
 254 -288 191 -288 191 -210 c 0
 191 -131 253 -62 322 0 c 1
 253 0 l 1
 211 -21 98 -114 98 -219 c 0
 98 -344 196 -358 378 -358 c 1
 378 -288 l 1
EndSplineSet
EndChar

StartChar: one
Encoding: 509 49 253
Width: 532
VWidth: 0
Flags: W
PickledData: "(dp1
S'com.typemytype.robofont.layerData'
p2
(dp3
s."
LayerCount: 2
Fore
SplineSet
233 0 m 1
 385 0 l 1
 385 1721 l 1
 282 1721 l 1
 220 1618 102 1555 41 1533 c 1
 41 1389 l 1
 86 1399 174 1438 233 1478 c 1
 233 0 l 1
EndSplineSet
EndChar

StartChar: onehalf
Encoding: 510 189 254
Width: 1716
VWidth: 0
Flags: W
PickledData: "(dp1
S'com.typemytype.robofont.layerData'
p2
(dp3
s."
LayerCount: 2
Fore
SplineSet
1126 -1 m 1
 1676 -1 l 1
 1676 110 l 1
 1295 110 l 1
 1560 519 l 2
 1614 603 1690 739 1690 837 c 0
 1690 1029 1606 1156 1423 1156 c 0
 1216 1156 1128 1013 1128 784 c 1
 1270 784 l 1
 1270 920 1289 1048 1424 1048 c 0
 1514 1048 1548 958 1548 836 c 0
 1548 753 1477 632 1431 558 c 1
 1126 99 l 1
 1126 -1 l 1
468 0 m 1
 612 0 l 1
 1165 1721 l 1
 1020 1721 l 1
 468 0 l 1
192 588 m 1
 328 588 l 1
 328 1721 l 1
 241 1721 l 1
 179 1618 61 1555 0 1533 c 1
 0 1408 l 1
 45 1418 133 1456 192 1497 c 1
 192 588 l 1
EndSplineSet
EndChar

StartChar: onequarter
Encoding: 511 188 255
Width: 1499
VWidth: 0
Flags: W
PickledData: "(dp1
S'com.typemytype.robofont.layerData'
p2
(dp3
s."
LayerCount: 2
Fore
SplineSet
192 588 m 1
 328 588 l 1
 328 1721 l 1
 241 1721 l 1
 179 1618 61 1555 0 1533 c 1
 0 1408 l 1
 45 1418 133 1456 192 1497 c 1
 192 588 l 1
348 0 m 1
 492 0 l 1
 1045 1721 l 1
 900 1721 l 1
 348 0 l 1
1028 378 m 1
 1257 1016 l 1
 1258 378 l 1
 1028 378 l 1
883 276 m 1
 1258 276 l 1
 1258 -1 l 1
 1394 -1 l 1
 1394 276 l 1
 1528 276 l 1
 1528 378 l 1
 1394 378 l 1
 1394 1132 l 1
 1184 1132 l 1
 883 371 l 1
 883 276 l 1
EndSplineSet
EndChar

StartChar: ordfeminine
Encoding: 512 170 256
Width: 745
VWidth: 0
Flags: W
PickledData: "(dp1
S'com.typemytype.robofont.layerData'
p2
(dp3
s."
LayerCount: 2
Fore
SplineSet
493 193 m 1
 456 127 384 81 321 81 c 0
 274 81 220 115 220 212 c 0
 220 341 321 413 493 524 c 1
 493 193 l 1
518 0 m 1
 635 0 l 1
 635 0 620 107 620 220 c 2
 620 639 l 2
 620 777 578 950 366 950 c 0
 221 950 126 844 113 670 c 1
 243 670 l 1
 252 846 321 866 371 866 c 0
 432 866 493 845 493 580 c 1
 100 427 94 312 94 189 c 0
 94 56 195 -23 291 -23 c 0
 356 -23 445 21 502 120 c 1
 518 0 l 1
EndSplineSet
EndChar

StartChar: ordmasculine
Encoding: 513 186 257
Width: 715
VWidth: 0
Flags: W
PickledData: "(dp1
S'com.typemytype.robofont.layerData'
p2
(dp3
s."
LayerCount: 2
Fore
SplineSet
111 1234 m 2
 111 999 111 770 358 770 c 0
 606 770 606 999 606 1234 c 2
 606 1283 l 2
 606 1500 606 1747 358 1747 c 0
 111 1747 111 1500 111 1283 c 2
 111 1234 l 2
228 1283 m 2
 228 1559 243 1668 358 1668 c 0
 472 1668 489 1559 489 1283 c 2
 489 1234 l 2
 489 953 468 849 358 849 c 0
 249 849 228 953 228 1234 c 2
 228 1283 l 2
EndSplineSet
EndChar

StartChar: oslash
Encoding: 514 248 258
Width: 850
VWidth: 0
Flags: W
PickledData: "(dp1
S'com.typemytype.robofont.layerData'
p2
(dp3
s."
LayerCount: 2
Fore
SplineSet
740 568 m 2
 740 630 l 2
 740 820 740 1027 640 1140 c 1
 744 1465 l 1
 695 1481 l 1
 598 1178 l 1
 554 1208 497 1225 423 1225 c 0
 106 1225 106 909 106 630 c 2
 106 568 l 2
 106 348 106 132 230 31 c 1
 143 -240 l 1
 191 -256 l 1
 274 3 l 1
 314 -16 363 -27 423 -27 c 0
 740 -27 740 267 740 568 c 2
423 74 m 0
 374 74 339 90 314 127 c 1
 576 941 l 1
 587 865 590 762 590 630 c 2
 590 568 l 2
 590 208 563 74 423 74 c 0
256 630 m 2
 256 984 275 1124 423 1124 c 0
 487 1124 528 1097 552 1036 c 1
 284 198 l 1
 262 277 256 397 256 568 c 2
 256 630 l 2
EndSplineSet
EndChar

StartChar: p
Encoding: 516 112 260
Width: 871
VWidth: 0
Flags: W
PickledData: "(dp1
S'com.typemytype.robofont.layerData'
p2
(dp3
s."
LayerCount: 2
Fore
SplineSet
615 558 m 2
 615 105 544 84 471 84 c 0
 400 84 332 134 270 203 c 1
 270 993 l 1
 329 1064 405 1114 466 1114 c 0
 542 1114 615 1102 615 653 c 2
 615 558 l 2
120 -385 m 1
 270 -385 l 1
 270 113 l 1
 334 19 419 -27 501 -27 c 0
 623 -27 765 20 765 557 c 2
 765 652 l 2
 765 1170 623 1225 512 1225 c 0
 437 1225 340 1194 270 1085 c 1
 270 1198 l 1
 120 1198 l 1
 120 -385 l 1
EndSplineSet
EndChar

StartChar: paragraph
Encoding: 517 182 261
Width: 969
VWidth: 0
Flags: W
PickledData: "(dp1
S'com.typemytype.robofont.layerData'
p2
(dp3
s."
LayerCount: 2
Fore
SplineSet
389 0 m 1
 514 0 l 1
 514 876 l 1
 725 876 l 1
 725 0 l 1
 831 0 l 1
 831 1459 l 1
 394 1459 l 2
 142 1459 23 1345 23 1165 c 0
 23 978 166 876 389 876 c 1
 389 0 l 1
EndSplineSet
EndChar

StartChar: parenleft
Encoding: 518 40 262
Width: 535
VWidth: 0
Flags: W
PickledData: "(dp1
S'com.typemytype.robofont.layerData'
p2
(dp3
s."
LayerCount: 2
Fore
SplineSet
541 68 m 1
 257 68 267 527 267 903 c 0
 267 1263 277 1655 541 1655 c 1
 541 1787 l 1
 106 1787 115 1192 115 861 c 0
 115 530 106 -64 541 -64 c 1
 541 68 l 1
EndSplineSet
EndChar

StartChar: parenright
Encoding: 519 41 263
Width: 545
VWidth: 0
Flags: W
PickledData: "(dp1
S'com.typemytype.robofont.layerData'
p2
(dp3
s."
LayerCount: 2
Fore
SplineSet
18 -64 m 1
 453 -64 444 530 444 861 c 0
 444 1192 453 1787 18 1787 c 1
 18 1655 l 1
 282 1655 292 1263 292 903 c 0
 292 527 302 68 18 68 c 1
 18 -64 l 1
EndSplineSet
EndChar

StartChar: percent
Encoding: 520 37 264
Width: 1257
VWidth: 0
Flags: W
PickledData: "(dp1
S'com.typemytype.robofont.layerData'
p2
(dp3
s."
LayerCount: 2
Fore
SplineSet
783 307 m 2
 783 127 833 -27 1009 -27 c 0
 1185 -27 1235 127 1235 307 c 2
 1235 541 l 2
 1235 723 1181 865 1009 865 c 0
 837 865 783 723 783 541 c 2
 783 307 l 2
1118 310 m 2
 1118 177 1094 74 1009 74 c 0
 924 74 900 177 900 310 c 2
 900 538 l 2
 900 665 924 764 1009 764 c 0
 1094 764 1118 665 1118 538 c 2
 1118 310 l 2
57 1187 m 2
 57 1007 107 853 283 853 c 0
 459 853 509 1007 509 1187 c 2
 509 1421 l 2
 509 1603 455 1745 283 1745 c 0
 111 1745 57 1603 57 1421 c 2
 57 1187 l 2
392 1190 m 2
 392 1057 368 954 283 954 c 0
 198 954 174 1057 174 1190 c 2
 174 1418 l 2
 174 1545 198 1644 283 1644 c 0
 368 1644 392 1545 392 1418 c 2
 392 1190 l 2
305 0 m 1
 428 0 l 1
 981 1721 l 1
 857 1721 l 1
 305 0 l 1
EndSplineSet
EndChar

StartChar: period
Encoding: 521 46 265
Width: 397
VWidth: 0
Flags: W
PickledData: "(dp1
S'com.typemytype.robofont.layerData'
p2
(dp3
s."
LayerCount: 2
Fore
SplineSet
115 0 m 1
 299 0 l 1
 299 179 l 1
 115 179 l 1
 115 0 l 1
EndSplineSet
EndChar

StartChar: periodcentered
Encoding: 522 183 266
Width: 446
VWidth: 0
Flags: W
PickledData: "(dp1
S'com.typemytype.robofont.layerData'
p2
(dp3
s."
LayerCount: 2
Fore
SplineSet
131 704 m 1
 316 704 l 1
 316 883 l 1
 131 883 l 1
 131 704 l 1
EndSplineSet
EndChar

StartChar: plus
Encoding: 523 43 267
Width: 649
VWidth: 0
Flags: W
PickledData: "(dp1
S'com.typemytype.robofont.layerData'
p2
(dp3
s."
LayerCount: 2
Fore
SplineSet
274 384 m 1
 395 384 l 1
 395 576 l 1
 587 576 l 1
 587 691 l 1
 395 691 l 1
 395 883 l 1
 274 883 l 1
 274 691 l 1
 82 691 l 1
 82 576 l 1
 274 576 l 1
 274 384 l 1
EndSplineSet
EndChar

StartChar: plusminus
Encoding: 524 177 268
Width: 702
VWidth: 0
Flags: W
PickledData: "(dp1
S'com.typemytype.robofont.layerData'
p2
(dp3
s."
LayerCount: 2
Fore
SplineSet
298 384 m 1
 418 384 l 1
 418 576 l 1
 610 576 l 1
 610 691 l 1
 418 691 l 1
 418 883 l 1
 298 883 l 1
 298 691 l 1
 106 691 l 1
 106 576 l 1
 298 576 l 1
 298 384 l 1
106 0 m 1
 610 0 l 1
 610 115 l 1
 106 115 l 1
 106 0 l 1
EndSplineSet
EndChar

StartChar: product
Encoding: 525 8719 269
Width: 1188
VWidth: 0
Flags: W
PickledData: "(dp1
S'com.typemytype.robofont.layerData'
p2
(dp3
s."
LayerCount: 2
Fore
SplineSet
152 0 m 1
 336 0 l 1
 336 1600 l 1
 856 1600 l 1
 856 0 l 1
 1040 0 l 1
 1040 1715 l 1
 152 1715 l 1
 152 0 l 1
EndSplineSet
EndChar

StartChar: q
Encoding: 526 113 270
Width: 871
VWidth: 0
Flags: W
PickledData: "(dp1
S'com.typemytype.robofont.layerData'
p2
(dp3
s."
LayerCount: 2
Fore
SplineSet
601 203 m 1
 539 134 471 84 400 84 c 0
 327 84 256 105 256 558 c 2
 256 653 l 2
 256 1102 329 1114 405 1114 c 0
 466 1114 542 1064 601 993 c 1
 601 203 l 1
601 -385 m 1
 751 -385 l 1
 751 1198 l 1
 601 1198 l 1
 601 1085 l 1
 531 1194 434 1225 359 1225 c 0
 248 1225 106 1170 106 652 c 2
 106 557 l 2
 106 20 248 -27 370 -27 c 0
 452 -27 537 19 601 113 c 1
 601 -385 l 1
EndSplineSet
EndChar

StartChar: question
Encoding: 527 63 271
Width: 868
VWidth: 0
Flags: W
PickledData: "(dp1
S'com.typemytype.robofont.layerData'
p2
(dp3
s."
LayerCount: 2
Fore
SplineSet
275 1 m 1
 459 1 l 1
 459 180 l 1
 275 180 l 1
 275 1 l 1
300 452 m 1
 434 452 l 1
 434 736 l 1
 690 895 829 1072 829 1319 c 0
 829 1609 635 1746 439 1746 c 0
 237 1746 33 1600 33 1325 c 2
 33 1179 l 1
 167 1179 l 1
 168 1321 l 2
 169 1519 287 1624 439 1624 c 0
 568 1624 692 1540 692 1317 c 0
 692 1211 653 997 300 793 c 1
 300 452 l 1
EndSplineSet
EndChar

StartChar: questiondown
Encoding: 528 191 272
Width: 811
VWidth: 0
Flags: W
PickledData: "(dp1
S'com.typemytype.robofont.layerData'
p2
(dp3
s."
LayerCount: 2
Fore
SplineSet
566 1377.5 m 1
 382 1377.5 l 1
 382 1198.5 l 1
 566 1198.5 l 1
 566 1377.5 l 1
541 926.5 m 1
 407 926.5 l 1
 407 642.5 l 1
 151 483.5 12 306.5 12 59.5 c 0
 12 -230.5 206 -367.5 402 -367.5 c 0
 604 -367.5 808 -221.5 808 53.5 c 2
 808 199.5 l 1
 674 199.5 l 1
 673 57.5 l 2
 672 -140.5 554 -245.5 402 -245.5 c 0
 273 -245.5 149 -161.5 149 61.5 c 0
 149 167.5 188 381.5 541 585.5 c 1
 541 926.5 l 1
EndSplineSet
EndChar

StartChar: quotedbl
Encoding: 529 34 273
Width: 694
VWidth: 0
Flags: W
PickledData: "(dp1
S'com.typemytype.robofont.layerData'
p2
(dp3
s."
LayerCount: 2
Fore
SplineSet
475 1408 m 1
 542 1408 l 1
 568 1560 567 1561 593 1715 c 1
 425 1715 l 1
 475 1408 l 1
152 1408 m 1
 219 1408 l 1
 245 1560 244 1561 270 1715 c 1
 102 1715 l 1
 152 1408 l 1
EndSplineSet
EndChar

StartChar: quotedblbase
Encoding: 530 8222 274
Width: 725
VWidth: 0
Flags: W
PickledData: "(dp1
S'com.typemytype.robofont.layerData'
p2
(dp3
s."
LayerCount: 2
Fore
SplineSet
497 -320 m 1
 564 -320 l 1
 590 -168 588 -167 614 -13 c 1
 446 -13 l 1
 497 -320 l 1
174 -320 m 1
 241 -320 l 1
 267 -168 265 -167 291 -13 c 1
 123 -13 l 1
 174 -320 l 1
EndSplineSet
EndChar

StartChar: quotedblleft
Encoding: 531 8220 275
Width: 698
VWidth: 0
Flags: W
PickledData: "(dp1
S'com.typemytype.robofont.layerData'
p2
(dp3
s."
LayerCount: 2
Fore
SplineSet
590 1311 m 1
 590 1490 l 1
 462 1490 l 1
 462 1528 467 1658 568 1691 c 1
 541 1746 l 1
 420 1731 405 1614 405 1311 c 1
 590 1311 l 1
296 1311 m 1
 296 1490 l 1
 168 1490 l 1
 168 1528 173 1658 274 1691 c 1
 247 1746 l 1
 126 1731 111 1614 111 1311 c 1
 296 1311 l 1
EndSplineSet
EndChar

StartChar: quotedblright
Encoding: 532 8221 276
Width: 686
VWidth: 0
Flags: W
PickledData: "(dp1
S'com.typemytype.robofont.layerData'
p2
(dp3
s."
LayerCount: 2
Fore
SplineSet
443 1286 m 1
 564 1301 579 1418 579 1721 c 1
 394 1721 l 1
 394 1542 l 1
 522 1542 l 1
 522 1504 517 1374 416 1341 c 1
 443 1286 l 1
149 1286 m 1
 270 1301 285 1418 285 1721 c 1
 100 1721 l 1
 100 1542 l 1
 228 1542 l 1
 228 1504 223 1374 122 1341 c 1
 149 1286 l 1
EndSplineSet
EndChar

StartChar: quoteleft
Encoding: 533 8216 277
Width: 403
VWidth: 0
Flags: W
PickledData: "(dp1
S'com.typemytype.robofont.layerData'
p2
(dp3
s."
LayerCount: 2
Fore
SplineSet
296 1311 m 1
 296 1490 l 1
 168 1490 l 1
 168 1528 173 1658 274 1691 c 1
 247 1746 l 1
 126 1731 111 1614 111 1311 c 1
 296 1311 l 1
EndSplineSet
EndChar

StartChar: quoteright
Encoding: 534 8217 278
Width: 393
VWidth: 0
Flags: W
PickledData: "(dp1
S'com.typemytype.robofont.layerData'
p2
(dp3
s."
LayerCount: 2
Fore
SplineSet
149 1286 m 1
 270 1301 285 1418 285 1721 c 1
 100 1721 l 1
 100 1542 l 1
 228 1542 l 1
 228 1504 223 1374 122 1341 c 1
 149 1286 l 1
EndSplineSet
EndChar

StartChar: quotesinglbase
Encoding: 535 8218 279
Width: 403
VWidth: 0
Flags: W
PickledData: "(dp1
S'com.typemytype.robofont.layerData'
p2
(dp3
s."
LayerCount: 2
Fore
SplineSet
173 -321 m 1
 241 -321 l 1
 267 -169 265 -168 291 -14 c 1
 123 -14 l 1
 173 -321 l 1
EndSplineSet
EndChar

StartChar: quotesingle
Encoding: 536 39 280
Width: 373
VWidth: 0
Flags: W
PickledData: "(dp1
S'com.typemytype.robofont.layerData'
p2
(dp3
s."
LayerCount: 2
Fore
SplineSet
153 1408 m 1
 220 1408 l 1
 246 1560 244 1561 271 1715 c 1
 102 1715 l 1
 153 1408 l 1
EndSplineSet
EndChar

StartChar: r
Encoding: 537 114 281
Width: 534
VWidth: 0
Flags: W
PickledData: "(dp1
S'com.typemytype.robofont.layerData'
p2
(dp3
s."
LayerCount: 2
Fore
SplineSet
120 0 m 1
 270 0 l 1
 270 894 l 2
 270 1035 384 1070 499 1070 c 0
 511 1070 522 1066 522 1066 c 1
 522 1217 l 1
 432 1215 310 1164 270 1029 c 1
 270 1198 l 1
 120 1198 l 1
 120 0 l 1
EndSplineSet
EndChar

StartChar: registered
Encoding: 541 174 285
Width: 1378
VWidth: 0
Flags: W
PickledData: "(dp1
S'com.typemytype.robofont.layerData'
p2
(dp3
s."
LayerCount: 2
Fore
SplineSet
696 67 m 0
 337 67 156 361 156 657 c 0
 156 953 337 1247 696 1247 c 0
 1055 1247 1236 953 1236 657 c 0
 1236 361 1055 67 696 67 c 0
696 -2 m 0
 1114 -2 1326 327 1326 657 c 0
 1326 987 1114 1316 696 1316 c 0
 278 1316 66 987 66 657 c 0
 66 327 278 -2 696 -2 c 0
576 695 m 1
 576 1032 l 1
 682 1032 l 2
 798 1032 851 973 851 843 c 0
 851 691 753 695 643 695 c 2
 576 695 l 1
504 241 m 1
 576 241 l 1
 576 646 l 1
 718 646 l 1
 851 244 l 1
 937 244 l 1
 797 629 783 657 783 657 c 1
 848 670 931 743 931 843 c 0
 931 961 889 1083 695 1083 c 2
 504 1083 l 1
 504 241 l 1
EndSplineSet
EndChar

StartChar: ring
Encoding: 542 730 286
Width: 637
VWidth: 0
Flags: W
PickledData: "(dp1
S'com.typemytype.robofont.layerData'
p2
(dp3
s."
LayerCount: 2
Fore
SplineSet
317 1722 m 0
 164 1722 98 1610 98 1504 c 0
 98 1398 164 1286 317 1286 c 0
 470 1286 536 1398 536 1504 c 0
 536 1610 470 1722 317 1722 c 0
176 1504 m 0
 176 1570 210 1651 317 1651 c 0
 424 1651 458 1570 458 1504 c 0
 458 1438 424 1357 317 1357 c 0
 210 1357 176 1438 176 1504 c 0
EndSplineSet
EndChar

StartChar: s
Encoding: 543 115 287
Width: 749
VWidth: 0
Flags: W
PickledData: "(dp1
S'com.typemytype.robofont.layerData'
p2
(dp3
s."
LayerCount: 2
Fore
SplineSet
57 300 m 1
 100 126 214 -27 401 -27 c 0
 578 -27 706 80 706 262 c 1
 703 433 582 539 466 640 c 2
 371 722 l 2
 287 794 221 865 221 952 c 0
 221 1046 276 1115 367 1115 c 0
 478 1115 532 977 548 878 c 1
 681 919 l 1
 643 1074 553 1223 374 1223 c 0
 195 1223 73 1123 73 939 c 0
 73 814 166 724 273 630 c 2
 360 554 l 2
 460 466 565 355 565 259 c 0
 565 155 516 81 407 81 c 0
 286 81 206 235 172 339 c 1
 57 300 l 1
EndSplineSet
EndChar

StartChar: section
Encoding: 549 167 293
Width: 834
VWidth: 0
Flags: W
PickledData: "(dp1
S'com.typemytype.robofont.layerData'
p2
(dp3
s."
LayerCount: 2
Fore
SplineSet
392 722 m 2
 308 795 228 864 228 952 c 0
 228 1036 272 1101 348 1113 c 1
 417 1053 l 2
 517 966 622 853 622 758 c 0
 622 681 596 621 538 595 c 1
 392 722 l 2
78 300 m 1
 121 126 235 -27 422 -27 c 0
 599 -27 727 80 727 262 c 1
 725 364 682 442 623 510 c 1
 709 556 763 643 763 761 c 1
 760 921 639 1038 523 1139 c 2
 428 1221 l 2
 344 1293 264 1364 264 1451 c 0
 264 1545 319 1614 410 1614 c 0
 521 1614 575 1476 591 1377 c 1
 724 1418 l 1
 686 1573 596 1722 417 1722 c 0
 238 1722 116 1622 116 1438 c 0
 116 1345 175 1271 249 1201 c 1
 145 1162 80 1073 80 939 c 0
 80 814 187 724 294 630 c 2
 381 554 l 2
 481 466 586 355 586 259 c 0
 586 155 537 81 428 81 c 0
 307 81 227 235 193 339 c 1
 78 300 l 1
EndSplineSet
EndChar

StartChar: semicolon
Encoding: 550 59 294
Width: 422
VWidth: 0
Flags: W
PickledData: "(dp1
S'com.typemytype.robofont.layerData'
p2
(dp3
s."
LayerCount: 2
Fore
SplineSet
173 0 m 1
 314 15 304 194 309 435 c 1
 125 435 l 1
 125 256 l 1
 253 256 l 1
 253 209 238 88 147 55 c 1
 173 0 l 1
125 813 m 1
 309 813 l 1
 309 992 l 1
 125 992 l 1
 125 813 l 1
EndSplineSet
EndChar

StartChar: seven
Encoding: 551 55 295
Width: 691
VWidth: 0
Flags: W
PickledData: "(dp1
S'com.typemytype.robofont.layerData'
p2
(dp3
s."
LayerCount: 2
Fore
SplineSet
156 0 m 1
 314 0 l 1
 461 753 501 892 647 1645 c 1
 647 1721 l 1
 1 1721 l 1
 1 1585 l 1
 484 1585 l 1
 156 0 l 1
EndSplineSet
EndChar

StartChar: six
Encoding: 552 54 296
Width: 979
VWidth: 0
Flags: W
PickledData: "(dp1
S'com.typemytype.robofont.layerData'
p2
(dp3
s."
LayerCount: 2
Fore
SplineSet
266 811 m 1
 310 840 424 857 512 857 c 0
 677 857 758 767 758 481 c 0
 758 187 674 95 502 95 c 0
 344 95 266 168 266 501 c 2
 266 811 l 1
114 490 m 2
 114 164 223 -27 502 -27 c 0
 796 -27 910 194 910 482 c 0
 910 762 799 979 512 979 c 0
 408 979 327 963 266 934 c 1
 266 1259 l 2
 266 1553 348 1623 488 1623 c 0
 641 1623 724 1571 730 1297 c 1
 872 1297 l 1
 872 1323 l 2
 872 1537 777 1745 502 1745 c 0
 214 1745 114 1539 114 1256 c 2
 114 490 l 2
EndSplineSet
EndChar

StartChar: slash
Encoding: 553 47 297
Width: 651
VWidth: 0
Flags: W
PickledData: "(dp1
S'com.typemytype.robofont.layerData'
p2
(dp3
s."
LayerCount: 2
Fore
SplineSet
-29 0 m 1
 115 0 l 1
 668 1721 l 1
 523 1721 l 1
 -29 0 l 1
EndSplineSet
EndChar

StartChar: sterling
Encoding: 555 163 299
Width: 836
VWidth: 0
Flags: W
PickledData: "(dp1
S'com.typemytype.robofont.layerData'
p2
(dp3
s."
LayerCount: 2
Fore
SplineSet
55 0 m 1
 783 0 l 1
 783 115 l 1
 335 115 l 1
 335 768 l 1
 624 768 l 1
 624 883 l 1
 335 883 l 1
 335 1164 l 2
 335 1416 336 1608 502 1617 c 0
 664 1626 664 1481 664 1343 c 1
 784 1343 l 1
 784 1434 792 1745 508 1745 c 0
 197 1745 183 1360 183 1204 c 2
 183 877 l 1
 55 877 l 1
 55 768 l 1
 183 768 l 1
 183 115 l 1
 55 65 l 1
 55 0 l 1
EndSplineSet
EndChar

StartChar: t
Encoding: 556 116 300
Width: 550
VWidth: 0
Flags: W
PickledData: "(dp1
S'com.typemytype.robofont.layerData'
p2
(dp3
s."
LayerCount: 2
Fore
SplineSet
167 283 m 2
 167 130 184 -18 377 -18 c 0
 415 -18 456 -14 507 -1 c 1
 507 102 l 1
 478 96 448 94 419 94 c 0
 321 94 317 169 317 290 c 2
 317 1114 l 1
 509 1114 l 1
 509 1198 l 1
 317 1198 l 1
 317 1623 l 1
 167 1623 l 1
 167 1198 l 1
 4 1198 l 1
 4 1114 l 1
 167 1114 l 1
 167 283 l 2
EndSplineSet
EndChar

StartChar: thorn
Encoding: 558 254 302
Width: 874
VWidth: 0
Flags: W
PickledData: "(dp1
S'com.typemytype.robofont.layerData'
p2
(dp3
s."
LayerCount: 2
Fore
SplineSet
615 545 m 2
 615 96 542 84 466 84 c 0
 405 84 329 134 270 205 c 1
 270 995 l 1
 332 1064 400 1114 471 1114 c 0
 544 1114 615 1093 615 640 c 2
 615 545 l 2
120 -385 m 1
 270 -385 l 1
 270 113 l 1
 340 4 437 -27 512 -27 c 0
 623 -27 765 28 765 546 c 2
 765 641 l 2
 765 1178 623 1225 501 1225 c 0
 419 1225 334 1179 270 1085 c 1
 270 1721 l 1
 120 1721 l 1
 120 -385 l 1
EndSplineSet
EndChar

StartChar: three
Encoding: 559 51 303
Width: 932
VWidth: 0
Flags: W
PickledData: "(dp1
S'com.typemytype.robofont.layerData'
p2
(dp3
s."
LayerCount: 2
Fore
SplineSet
74 395 m 2
 74 181 172 -27 454 -27 c 0
 749 -27 852 179 852 462 c 0
 852 770 719 869 617 910 c 1
 746 948 852 1083 852 1316 c 0
 852 1538 750 1745 472 1745 c 0
 174 1745 73 1536 73 1317 c 2
 73 1292 l 1
 216 1292 l 1
 227 1533 317 1623 469 1623 c 0
 619 1623 700 1547 700 1317 c 0
 700 1075 637 985 444 977 c 1
 444 848 l 1
 641 832 700 676 700 459 c 0
 700 165 614 95 468 95 c 0
 309 95 222 147 216 421 c 1
 74 421 l 1
 74 395 l 2
EndSplineSet
EndChar

StartChar: threequarters
Encoding: 560 190 304
Width: 1890
VWidth: 0
Flags: W
PickledData: "(dp1
S'com.typemytype.robofont.layerData'
p2
(dp3
s."
LayerCount: 2
Fore
SplineSet
1418 378 m 1
 1647 1016 l 1
 1648 378 l 1
 1418 378 l 1
1273 276 m 1
 1648 276 l 1
 1648 -1 l 1
 1784 -1 l 1
 1784 276 l 1
 1918 276 l 1
 1918 378 l 1
 1784 378 l 1
 1784 1132 l 1
 1574 1132 l 1
 1273 371 l 1
 1273 276 l 1
645 0 m 1
 789 0 l 1
 1342 1721 l 1
 1197 1721 l 1
 645 0 l 1
59 955 m 1
 59 729 143 587 337 587 c 0
 524 587 610 722 610 913 c 0
 610 1003 542 1134 452 1188 c 1
 543 1231 610 1337 610 1436 c 0
 610 1601 527 1744 347 1744 c 0
 146 1744 59 1602 59 1374 c 1
 189 1374 l 1
 189 1510 210 1638 348 1638 c 0
 445 1638 480 1548 480 1425 c 0
 480 1349 429 1261 319 1230 c 1
 319 1146 l 1
 417 1126 480 991 480 914 c 0
 480 772 442 693 338 693 c 0
 209 693 189 819 189 955 c 1
 59 955 l 1
EndSplineSet
EndChar

StartChar: tilde
Encoding: 561 732 305
Width: 754
VWidth: 0
Flags: W
PickledData: "(dp1
S'com.typemytype.robofont.layerData'
p2
(dp3
s."
LayerCount: 2
Fore
SplineSet
217 1376 m 1
 224 1429 243 1442 279 1442 c 0
 332 1442 401 1364 472 1364 c 0
 656 1364 653 1544 656 1554 c 1
 540 1554 l 1
 533 1501 510 1487 474 1487 c 0
 424 1487 344 1563 289 1563 c 0
 119 1563 104 1420 102 1376 c 1
 217 1376 l 1
EndSplineSet
EndChar

StartChar: trademark
Encoding: 562 8482 306
Width: 1399
VWidth: 0
Flags: W
PickledData: "(dp1
S'com.typemytype.robofont.layerData'
p2
(dp3
s."
LayerCount: 2
Fore
SplineSet
646 686 m 1
 733 686 l 1
 733 1400 l 1
 933 686 l 1
 980 686 l 1
 1181 1410 l 1
 1181 686 l 1
 1270 686 l 1
 1270 1441 l 1
 1120 1441 l 1
 957 902 l 1
 809 1441 l 1
 646 1441 l 1
 646 686 l 1
220 686 m 1
 319 686 l 1
 319 1364 l 1
 483 1364 l 1
 483 1441 l 1
 57 1441 l 1
 57 1364 l 1
 220 1364 l 1
 220 686 l 1
EndSplineSet
EndChar

StartChar: tt
Encoding: 563 -1 307
Width: 1082
VWidth: 0
Flags: W
PickledData: "(dp1
S'com.typemytype.robofont.layerData'
p2
(dp3
s."
LayerCount: 2
Fore
SplineSet
179 283 m 2
 179 130 196 -18 389 -18 c 0
 427 -18 468 -14 519 -1 c 1
 519 102 l 1
 490 96 460 94 431 94 c 0
 333 94 329 169 329 290 c 2
 329 1114 l 1
 667 1114 l 1
 667 283 l 2
 667 130 684 -18 877 -18 c 0
 915 -18 956 -14 1007 -1 c 1
 1007 102 l 1
 978 96 948 94 919 94 c 0
 821 94 817 169 817 290 c 2
 817 1114 l 1
 1009 1114 l 1
 1009 1198 l 1
 817 1198 l 1
 817 1623 l 1
 667 1623 l 1
 667 1198 l 1
 329 1198 l 1
 329 1623 l 1
 179 1623 l 1
 179 1198 l 1
 16 1198 l 1
 16 1114 l 1
 179 1114 l 1
 179 283 l 2
EndSplineSet
EndChar

StartChar: two
Encoding: 564 50 308
Width: 931
VWidth: 0
Flags: W
PickledData: "(dp1
S'com.typemytype.robofont.layerData'
p2
(dp3
s."
LayerCount: 2
Fore
SplineSet
63 0 m 1
 848 0 l 1
 848 122 l 1
 242 122 l 1
 675 793 l 1
 760 916 869 1118 869 1273 c 0
 869 1558 747 1745 487 1745 c 0
 196 1745 72 1551 66 1239 c 1
 66 1216 l 1
 218 1216 l 1
 218 1426 253 1623 489 1623 c 0
 656 1623 717 1474 717 1272 c 0
 717 1119 605 946 525 825 c 2
 63 128 l 1
 63 0 l 1
EndSplineSet
EndChar

StartChar: u
Encoding: 565 117 309
Width: 892
VWidth: 0
Flags: W
PickledData: "(dp1
S'com.typemytype.robofont.layerData'
p2
(dp3
s."
LayerCount: 2
Fore
SplineSet
112 257 m 2
 112 65 229 -27 336 -27 c 0
 427 -27 523 15 590 113 c 1
 590 0 l 1
 740 0 l 1
 740 1198 l 1
 590 1198 l 1
 590 205 l 1
 530 130 453 84 391 84 c 0
 322 84 264 127 264 254 c 2
 264 1198 l 1
 112 1198 l 1
 112 257 l 2
EndSplineSet
EndChar

StartChar: underscore
Encoding: 573 95 317
Width: 913
VWidth: 0
Flags: W
PickledData: "(dp1
S'com.typemytype.robofont.layerData'
p2
(dp3
s."
LayerCount: 2
Fore
SplineSet
115 0 m 1
 811 0 l 1
 811 115 l 1
 115 115 l 1
 115 0 l 1
EndSplineSet
EndChar

StartChar: uni00AD
Encoding: 575 173 319
Width: 659
VWidth: 0
Flags: W
PickledData: "(dp1
S'com.typemytype.robofont.layerData'
p2
(dp3
s."
LayerCount: 2
Fore
SplineSet
117 448 m 1
 558 448 l 1
 558 563 l 1
 117 563 l 1
 117 448 l 1
EndSplineSet
EndChar

StartChar: uni00B2
Encoding: 576 178 320
Width: 764
VWidth: 0
Flags: W
PickledData: "(dp1
S'com.typemytype.robofont.layerData'
p2
(dp3
s."
LayerCount: 2
Fore
SplineSet
100 586 m 1
 650 586 l 1
 650 697 l 1
 269 697 l 1
 534 1106 l 2
 588 1190 664 1326 664 1424 c 0
 664 1616 580 1743 397 1743 c 0
 190 1743 102 1600 102 1371 c 1
 244 1371 l 1
 244 1507 263 1635 398 1635 c 0
 488 1635 522 1545 522 1423 c 0
 522 1340 451 1219 405 1145 c 1
 100 686 l 1
 100 586 l 1
EndSplineSet
EndChar

StartChar: uni00B3
Encoding: 577 179 321
Width: 770
VWidth: 0
Flags: W
PickledData: "(dp1
S'com.typemytype.robofont.layerData'
p2
(dp3
s."
LayerCount: 2
Fore
SplineSet
104 955 m 1
 104 729 188 587 382 587 c 0
 569 587 655 722 655 913 c 0
 655 1003 587 1134 497 1188 c 1
 588 1231 655 1337 655 1436 c 0
 655 1601 572 1744 392 1744 c 0
 191 1744 104 1602 104 1374 c 1
 234 1374 l 1
 234 1510 255 1638 393 1638 c 0
 490 1638 525 1548 525 1425 c 0
 525 1349 474 1261 364 1230 c 1
 364 1146 l 1
 462 1126 525 991 525 914 c 0
 525 772 487 693 383 693 c 0
 254 693 234 819 234 955 c 1
 104 955 l 1
EndSplineSet
EndChar

StartChar: uni00B9
Encoding: 578 185 322
Width: 522
VWidth: 0
Flags: W
PickledData: "(dp1
S'com.typemytype.robofont.layerData'
p2
(dp3
s."
LayerCount: 2
Fore
SplineSet
243 588 m 1
 379 588 l 1
 379 1721 l 1
 292 1721 l 1
 230 1618 112 1555 51 1533 c 1
 51 1408 l 1
 96 1418 184 1456 243 1497 c 1
 243 588 l 1
EndSplineSet
EndChar

StartChar: uni0237
Encoding: 619 567 363
Width: 410
VWidth: 0
Flags: W
PickledData: "(dp1
S'com.typemytype.robofont.layerData'
p2
(dp3
s."
LayerCount: 2
Fore
SplineSet
-72 -312 m 1
 -41 -318 -4 -320 9 -320 c 0
 172 -320 270 -242 270 -46 c 2
 270 1198 l 1
 120 1198 l 1
 120 -18 l 2
 120 -80 120 -206 -16 -206 c 0
 -26 -206 -49 -205 -72 -204 c 1
 -72 -312 l 1
EndSplineSet
EndChar

StartChar: uni030F
Encoding: 620 783 364
Width: 666
VWidth: 0
Flags: W
PickledData: "(dp1
S'com.typemytype.robofont.layerData'
p2
(dp3
s."
LayerCount: 2
Fore
SplineSet
275 1408 m 1
 334 1408 l 1
 228 1721 l 1
 68 1721 l 1
 275 1408 l 1
506 1408 m 1
 565 1408 l 1
 459 1721 l 1
 299 1721 l 1
 506 1408 l 1
EndSplineSet
EndChar

StartChar: uni0311
Encoding: 621 785 365
Width: 737
VWidth: 0
Flags: W
PickledData: "(dp1
S'com.typemytype.robofont.layerData'
p2
(dp3
s."
LayerCount: 2
Fore
SplineSet
201 1313 m 1
 221 1451 293 1472 366 1472 c 0
 439 1472 511 1451 531 1313 c 1
 642 1313 l 1
 633 1530 476 1581 366 1581 c 0
 256 1581 99 1530 90 1313 c 1
 201 1313 l 1
EndSplineSet
EndChar

StartChar: uni0326
Encoding: 622 806 366
Width: 502
VWidth: 0
Flags: W
PickledData: "(dp1
S'com.typemytype.robofont.layerData'
p2
(dp3
s."
LayerCount: 2
Fore
SplineSet
205 -522 m 1
 209 -522 212 -521 216 -520 c 0
 346 -496 341 -310 341 -87 c 1
 156 -87 l 1
 156 -266 l 1
 284 -266 l 1
 284 -313 270 -434 178 -467 c 1
 205 -522 l 1
EndSplineSet
EndChar

StartChar: uni2074
Encoding: 623 8308 367
Width: 737
VWidth: 0
Flags: W
PickledData: "(dp1
S'com.typemytype.robofont.layerData'
p2
(dp3
s."
LayerCount: 2
Fore
SplineSet
184 968 m 1
 413 1606 l 1
 414 968 l 1
 184 968 l 1
39 866 m 1
 414 866 l 1
 414 589 l 1
 550 589 l 1
 550 866 l 1
 684 866 l 1
 684 968 l 1
 550 968 l 1
 550 1722 l 1
 340 1722 l 1
 39 961 l 1
 39 866 l 1
EndSplineSet
EndChar

StartChar: uniFB00
Encoding: 624 64256 368
Width: 1029
VWidth: 0
Flags: W
PickledData: "(dp1
S'com.typemytype.robofont.layerData'
p2
(dp3
s."
LayerCount: 2
Fore
SplineSet
177 0 m 1
 327 0 l 1
 327 1114 l 1
 674 1114 l 1
 674 0 l 1
 824 0 l 1
 824 1114 l 1
 1016 1114 l 1
 1016 1198 l 1
 824 1198 l 1
 824 1378 l 2
 824 1449 819 1536 939 1536 c 0
 952 1536 1001 1533 1013 1530 c 1
 1013 1639 l 1
 976 1648 932 1652 891 1652 c 0
 658 1652 674 1425 674 1327 c 2
 674 1198 l 1
 327 1198 l 1
 327 1378 l 2
 327 1449 322 1536 442 1536 c 0
 455 1536 504 1533 516 1530 c 1
 516 1639 l 1
 479 1648 435 1652 394 1652 c 0
 161 1652 177 1425 177 1327 c 2
 177 1198 l 1
 10 1198 l 1
 10 1114 l 1
 177 1114 l 1
 177 0 l 1
EndSplineSet
EndChar

StartChar: uniFB01
Encoding: 625 64257 369
Width: 942
VWidth: 0
Flags: W
PickledData: "(dp1
S'com.typemytype.robofont.layerData'
p2
(dp3
s."
LayerCount: 2
Fore
SplineSet
669 1472 m 1
 819 1472 l 1
 819 1651 l 1
 669 1651 l 1
 669 1472 l 1
177 0 m 1
 327 0 l 1
 327 1114 l 1
 669 1114 l 1
 669 0 l 1
 819 0 l 1
 819 1198 l 1
 327 1198 l 1
 327 1378 l 2
 327 1449 322 1536 442 1536 c 0
 455 1536 504 1533 516 1530 c 1
 516 1639 l 1
 479 1648 435 1652 394 1652 c 0
 161 1652 177 1425 177 1327 c 2
 177 1198 l 1
 10 1198 l 1
 10 1114 l 1
 177 1114 l 1
 177 0 l 1
EndSplineSet
EndChar

StartChar: uniFB02
Encoding: 626 64258 370
Width: 983
VWidth: 0
Flags: W
PickledData: "(dp1
S'com.typemytype.robofont.layerData'
p2
(dp3
s."
LayerCount: 2
Fore
SplineSet
177 0 m 1
 327 0 l 1
 327 1114 l 1
 519 1114 l 1
 519 1198 l 1
 327 1198 l 1
 327 1378 l 2
 327 1516 382 1542 515 1542 c 0
 558 1542 687 1532 687 1532 c 1
 687 0 l 1
 837 0 l 1
 837 1603 l 1
 837 1603 719 1653 526 1653 c 0
 302 1653 177 1607 177 1367 c 2
 177 1198 l 1
 10 1198 l 1
 10 1114 l 1
 177 1114 l 1
 177 0 l 1
EndSplineSet
EndChar

StartChar: uniFB03
Encoding: 627 64259 371
Width: 1439
VWidth: 0
Flags: W
PickledData: "(dp1
S'com.typemytype.robofont.layerData'
p2
(dp3
s."
LayerCount: 2
Fore
SplineSet
1166 1472 m 1
 1316 1472 l 1
 1316 1651 l 1
 1166 1651 l 1
 1166 1472 l 1
177 0 m 1
 327 0 l 1
 327 1114 l 1
 674 1114 l 1
 674 0 l 1
 824 0 l 1
 824 1114 l 1
 1166 1114 l 1
 1166 0 l 1
 1316 0 l 1
 1316 1198 l 1
 824 1198 l 1
 824 1378 l 2
 824 1449 819 1536 939 1536 c 0
 952 1536 1001 1533 1013 1530 c 1
 1013 1639 l 1
 976 1648 932 1652 891 1652 c 0
 658 1652 674 1425 674 1327 c 2
 674 1198 l 1
 327 1198 l 1
 327 1378 l 2
 327 1449 322 1536 442 1536 c 0
 455 1536 504 1533 516 1530 c 1
 516 1639 l 1
 479 1648 435 1652 394 1652 c 0
 161 1652 177 1425 177 1327 c 2
 177 1198 l 1
 10 1198 l 1
 10 1114 l 1
 177 1114 l 1
 177 0 l 1
EndSplineSet
EndChar

StartChar: uniFB04
Encoding: 628 64260 372
Width: 1480
VWidth: 0
Flags: W
PickledData: "(dp1
S'com.typemytype.robofont.layerData'
p2
(dp3
s."
LayerCount: 2
Fore
SplineSet
177 0 m 1
 327 0 l 1
 327 1114 l 1
 674 1114 l 1
 674 0 l 1
 824 0 l 1
 824 1114 l 1
 1073 1114 l 1
 1073 1198 l 1
 824 1198 l 1
 824 1378 l 2
 824 1516 879 1542 1012 1542 c 0
 1055 1542 1184 1532 1184 1532 c 1
 1184 0 l 1
 1334 0 l 1
 1334 1603 l 1
 1334 1603 1216 1653 1023 1653 c 0
 799 1653 674 1607 674 1367 c 2
 674 1198 l 1
 327 1198 l 1
 327 1378 l 2
 327 1449 322 1536 442 1536 c 0
 455 1536 504 1533 516 1530 c 1
 516 1639 l 1
 479 1648 435 1652 394 1652 c 0
 161 1652 177 1425 177 1327 c 2
 177 1198 l 1
 10 1198 l 1
 10 1114 l 1
 177 1114 l 1
 177 0 l 1
EndSplineSet
EndChar

StartChar: v
Encoding: 632 118 376
Width: 747
VWidth: 0
Flags: W
PickledData: "(dp1
S'com.typemytype.robofont.layerData'
p2
(dp3
s."
LayerCount: 2
Fore
SplineSet
297 0 m 1
 472 0 l 1
 722 1198 l 1
 579 1198 l 1
 385 136 l 1
 171 1198 l 1
 25 1198 l 1
 297 0 l 1
EndSplineSet
EndChar

StartChar: w
Encoding: 633 119 377
Width: 1161
VWidth: 0
Flags: W
PickledData: "(dp1
S'com.typemytype.robofont.layerData'
p2
(dp3
s."
LayerCount: 2
Fore
SplineSet
240 0 m 1
 399 0 l 1
 585 988 l 1
 778 0 l 1
 923 0 l 1
 1119 1198 l 1
 990 1198 l 1
 846 176 l 1
 662 1198 l 1
 502 1198 l 1
 331 176 l 1
 173 1198 l 1
 42 1198 l 1
 240 0 l 1
EndSplineSet
EndChar

StartChar: x
Encoding: 638 120 382
Width: 783
VWidth: 0
Flags: W
PickledData: "(dp1
S'com.typemytype.robofont.layerData'
p2
(dp3
s."
LayerCount: 2
Fore
SplineSet
39 0 m 1
 186 0 l 1
 392 534 l 1
 598 0 l 1
 744 0 l 1
 486 626 l 1
 743 1198 l 1
 588 1198 l 1
 392 699 l 1
 196 1198 l 1
 41 1198 l 1
 297 626 l 1
 39 0 l 1
EndSplineSet
EndChar

StartChar: y
Encoding: 639 121 383
Width: 777
VWidth: 0
Flags: W
PickledData: "(dp1
S'com.typemytype.robofont.layerData'
p2
(dp3
s."
LayerCount: 2
Fore
SplineSet
77 -299 m 1
 80 -299 l 1
 286 -293 411 -245 453 -83 c 1
 753 1198 l 1
 601 1198 l 1
 397 197 l 1
 189 1198 l 1
 37 1198 l 1
 297 96 l 1
 305 46 308 -12 308 -46 c 0
 308 -122 240 -165 77 -176 c 1
 77 -299 l 1
EndSplineSet
EndChar

StartChar: yen
Encoding: 643 165 387
Width: 909
VWidth: 0
Flags: W
PickledData: "(dp1
S'com.typemytype.robofont.layerData'
p2
(dp3
s."
LayerCount: 2
Fore
SplineSet
386 0 m 1
 538 0 l 1
 538 226 l 1
 743 226 l 1
 743 317 l 1
 538 317 l 1
 538 523 l 1
 743 523 l 1
 743 612 l 1
 562 612 l 1
 902 1721 l 1
 743 1721 l 1
 619 1275 583 1135 461 689 c 1
 179 1721 l 1
 10 1721 l 1
 361 612 l 1
 174 612 l 1
 174 523 l 1
 386 523 l 1
 386 317 l 1
 174 317 l 1
 174 226 l 1
 386 226 l 1
 386 0 l 1
EndSplineSet
EndChar

StartChar: z
Encoding: 645 122 389
Width: 695
VWidth: 0
Flags: W
PickledData: "(dp1
S'com.typemytype.robofont.layerData'
p2
(dp3
s."
LayerCount: 2
Fore
SplineSet
47 0 m 1
 654 0 l 1
 654 115 l 1
 199 115 l 1
 660 1055 l 1
 660 1198 l 1
 111 1198 l 1
 111 1084 l 1
 519 1084 l 1
 47 144 l 1
 47 0 l 1
EndSplineSet
EndChar

StartChar: zero
Encoding: 649 48 393
Width: 1047
VWidth: 0
Flags: W
PickledData: "(dp1
S'com.typemytype.robofont.layerData'
p2
(dp3
s."
LayerCount: 2
Fore
SplineSet
117 499 m 2
 117 210 208 -27 526 -27 c 0
 844 -27 935 210 935 499 c 2
 935 1220 l 2
 935 1511 836 1745 526 1745 c 0
 216 1745 117 1511 117 1220 c 2
 117 499 l 2
783 465 m 2
 783 261 726 95 526 95 c 0
 326 95 269 261 269 465 c 2
 269 1254 l 2
 269 1458 326 1623 526 1623 c 0
 726 1623 783 1458 783 1254 c 2
 783 465 l 2
EndSplineSet
EndChar

